<svg xmlns="http://www.w3.org/2000/svg" viewBox="0 0 350 299.07" width="350" height="299.07">
    <defs>
        <style>
            .a{fill:#fff}.a,.e,.g,.h,.j,.k,.l,.m,.n,.o,.p,.q,.r,.u{fill-rule:evenodd}.r{fill:#fbe1b2}.d,.f,.v,.w{fill:none;stroke:#33475c}.d,.f,.v{stroke-linecap:round;stroke-linejoin:round}.d{stroke-width:5.85px}.e{fill:#e4eaef}.f{stroke-width:1.17px}.g{fill:#cbd6e3}.h{fill:#32475c}.j{fill:#415a77}.k{fill:#75715c}.l{fill:#6bd1e5}.m{fill:#f63174}.n{fill:#a2e200}.o{fill:#fc9900}.p{fill:#98acc3}.q{fill:#7b97b7}.u{fill:#f9d28c}.v{stroke-width:7.37px}.w{stroke-width:1.47px}.z{fill:#94e5ed}.aa{fill:#ff8f59;stroke:#33475b;stroke-miterlimit:10;stroke-width:2.05px}.ac{fill:#f2547d}
        </style>
        <mask id="a" x="0" y="98.16" width="348.16" height="201.01" maskUnits="userSpaceOnUse">
            <path class="a" d="M0 98.17v201h348.16v-201H0z"/>
        </mask>
    </defs>
    <g mask="url(#a)">
        <path d="M171.81 296.56l37.46-21.63 48.45-28 85.91-49.6c3-1.75 4.53-4 4.53-6.34s-1.51-4.59-4.53-6.33l-37.47-21.64-70.39-40.64-37.47-21.6a24.28 24.28 0 0 0-21.94 0l-85.92 49.6L42 178.35 4.53 200c-6 3.49-6 9.19 0 12.67L42 234.29l70.39 40.64 37.47 21.63c6 3.49 15.91 3.48 21.95 0" style="isolation:isolate" opacity=".5" fill="#fbe1b2" fill-rule="evenodd"/>
    </g>
    <path class="d" d="M76.89 227l25.27 14.59 19.55 11.28a12.67 12.67 0 0 0 11.44 0l19.55-11.28L178 227l25.27-14.59 19.55-11.29a3.49 3.49 0 0 0 0-6.61l-19.55-11.28L152.7 154l-50.54 29.18-25.27 14.63-25.27 14.59L76.89 227"/>
    <path class="d" d="M209.54 187.04l-100.76 58.17-57.16-32.81 101.08-58.37 56.84 33.01z"/>
    <path class="d" d="M127.43 168.63l-25.27 14.59-25.27 14.59-25.27 14.59v-80.94a12.69 12.69 0 0 1 5.72-9.91l19.55-11.29 25.27-14.59 25.27-14.59L147 69.8a4.11 4.11 0 0 1 3.9-.47c1.12.56 1.82 1.87 1.82 3.77V154l-25.27 14.59"/>
    <path class="d" d="M143.44 80.26c1.89-1.09 3.43-.19 3.43 2v64a7.62 7.62 0 0 1-3.43 5.95l-82.56 47.62c-1.89 1.09-3.43.2-3.43-2v-64a7.62 7.62 0 0 1 3.43-5.95z"/>
    <path class="d" d="M82.34 146.06L183.1 87.88l-30.4 66.15L51.62 212.4l30.72-66.34zM152.7 154.03v65.82l56.84-32.81-56.84-33.01z"/>
    <path class="d" d="M150.88 69.33l-5.29-2.65a4.14 4.14 0 0 0-3.9.47l-19.55 11.29L96.87 93 71.6 107.62 52.05 118.9a12.7 12.7 0 0 0-5.72 9.92v75.72c0 1.25.58 5.15 5.28 7.86v-80.94a12.69 12.69 0 0 1 5.72-9.91l19.55-11.29 25.27-14.59 25.27-14.59L147 69.8a4.08 4.08 0 0 1 3.88-.47zM51.62 212.4l57.16 32.81 43.92-25.36v-65.82L51.62 212.4z"/>
    <path class="d" d="M152.7 154.03v.01-.01L51.62 212.4l57.16 32.81 100.76-58.17-56.84-33.01z"/>
    <path class="d" d="M76.51 208.58l-7.8 4.51A2 2 0 0 1 67 213c-.51-.3-.57-.75-.13-1l7.81-4.51a1.93 1.93 0 0 1 1.73.08c.49.31.59.76.1 1.01zM83 220.47l-.62.35a2 2 0 0 1-1.85 0 .56.56 0 0 1 0-1.06l.62-.36a2.08 2.08 0 0 1 1.85 0 .57.57 0 0 1 0 1.07zM106.33 222.59l-1.79 1a2 2 0 0 1-1.73-.07c-.51-.3-.56-.75-.12-1l1.79-1a2 2 0 0 1 1.73.07c.51.3.56.75.12 1zM112.81 218.85L109 221a1.88 1.88 0 0 1-1.72-.07c-.51-.29-.57-.74-.13-1l3.8-2.2a2 2 0 0 1 1.73.07c.51.35.57.8.13 1.05zM115.59 217.25l-.41.23a1.91 1.91 0 0 1-1.72-.07c-.51-.29-.57-.74-.13-1l.41-.23a1.94 1.94 0 0 1 1.72.07c.54.3.54.75.13 1zM120.68 214.31l-2.68 1.57a2 2 0 0 1-1.73-.07c-.51-.3-.56-.75-.12-1l2.72-1.57a1.94 1.94 0 0 1 1.72.07c.47.3.53.75.09 1zM122.29 213a.19.19 0 0 1 0 .36.68.68 0 0 1-.62 0 .19.19 0 0 1 0-.36.68.68 0 0 1 .62 0zM133 207.18l-9.2 5.31a1.9 1.9 0 0 1-1.73-.07c-.5-.29-.56-.74-.12-1l9.2-5.3a1.88 1.88 0 0 1 1.72.07c.53.29.59.74.13.99zM136.26 205.32l-.41.23a1.94 1.94 0 0 1-1.72-.07c-.51-.3-.57-.75-.13-1l.41-.23a1.88 1.88 0 0 1 1.72.07c.51.29.57.74.13 1zM78.62 212.57l-.31.18a2.08 2.08 0 0 1-1.85 0 .57.57 0 0 1 0-1.07l.31-.18a2.08 2.08 0 0 1 1.85 0 .57.57 0 0 1 0 1.07zM74.72 214.82l-1.38.8a2.1 2.1 0 0 1-1.86 0 .57.57 0 0 1 0-1.07l1.39-.8a2.08 2.08 0 0 1 1.85 0 .57.57 0 0 1 0 1.07zM84.76 209l-2.87 1.65a1.9 1.9 0 0 1-1.73-.07c-.51-.29-.57-.74-.12-1l2.87-1.58a1.88 1.88 0 0 1 1.72.07c.51.25.57.7.13.93zM87.44 207.48l-.41.23a1.91 1.91 0 0 1-1.72-.07c-.51-.3-.57-.74-.13-1l.41-.23a1.94 1.94 0 0 1 1.72.07c.51.3.57.74.13 1zM96.94 202l-7 4.06a1.93 1.93 0 0 1-1.73-.07c-.51-.29-.56-.74-.12-1l7-4.06a2 2 0 0 1 1.73.07c.51.29.56.74.12 1zM99.31 200.62l-.4.23a1.9 1.9 0 0 1-1.73-.07c-.5-.29-.56-.74-.12-1l.4-.23a2 2 0 0 1 1.73.07c.51.3.56.75.12 1zM101.78 199.2l-.4.23a2 2 0 0 1-1.73-.07c-.51-.3-.56-.74-.12-1l.4-.23a1.93 1.93 0 0 1 1.73.07c.51.29.56.74.12 1zM111.44 193.62l-7.19 4.15a1.94 1.94 0 0 1-1.72-.07c-.51-.3-.57-.75-.13-1l7.19-4.15a2 2 0 0 1 1.73.07c.51.3.56.75.12 1zM110.84 225.19l-1.79 1a2 2 0 0 1-1.73-.07c-.51-.3-.56-.75-.12-1l1.79-1a1.91 1.91 0 0 1 1.72.08c.51.29.57.74.13.99zM117.32 221.45l-3.8 2.19a1.9 1.9 0 0 1-1.73-.07c-.5-.29-.56-.74-.12-1l3.8-2.2a1.91 1.91 0 0 1 1.72.08c.51.3.57.75.13 1zM120.09 219.85l-.4.23A1.9 1.9 0 0 1 118 220c-.5-.29-.56-.74-.12-1l.4-.24a2 2 0 0 1 1.73.07c.47.32.52.77.08 1.02zM125.18 216.91l-2.71 1.57a1.93 1.93 0 0 1-1.73-.07c-.51-.29-.56-.74-.12-1l2.71-1.57a1.93 1.93 0 0 1 1.73.08c.51.29.56.74.12.99zM126.8 215.62a.19.19 0 0 1 0 .36.68.68 0 0 1-.62 0 .19.19 0 0 1 0-.36.75.75 0 0 1 .62 0zM141.69 207.38l-13.36 7.72a1.93 1.93 0 0 1-1.73-.08c-.51-.29-.56-.74-.12-1l13.36-7.72a1.91 1.91 0 0 1 1.72.08c.51.3.57.75.13 1zM145.24 205.33l-.41.24a1.94 1.94 0 0 1-1.72-.07c-.51-.3-.57-.75-.13-1l.41-.23a1.88 1.88 0 0 1 1.72.07c.51.29.57.74.13.99zM139 214.16l-1.79 1a1.93 1.93 0 0 1-1.73-.07c-.51-.3-.56-.74-.12-1l1.79-1a1.93 1.93 0 0 1 1.73.07c.48.29.53.74.12 1zM145.45 210.42l-3.8 2.19a1.94 1.94 0 0 1-1.72-.07c-.51-.3-.57-.75-.13-1l3.8-2.19a1.88 1.88 0 0 1 1.72.07c.52.29.57.74.13 1zM117 226.82l-3.49 2a1.94 1.94 0 0 1-1.72-.07c-.51-.3-.57-.74-.13-1l3.49-2a1.93 1.93 0 0 1 1.73.07c.55.29.6.74.12 1zM121.82 224.06l-2.71 1.57a1.93 1.93 0 0 1-1.73-.08c-.51-.29-.56-.74-.12-1L120 223a1.93 1.93 0 0 1 1.73.07c.48.28.53.73.09.99zM133.87 217.1l-10 5.76a2 2 0 0 1-1.73-.07c-.5-.3-.56-.75-.12-1L132 216a1.91 1.91 0 0 1 1.72.08c.53.32.59.77.15 1.02zM91.61 220.68l-4.88 2.82a1.94 1.94 0 0 1-1.72-.07c-.51-.3-.57-.75-.13-1l4.88-2.82a1.91 1.91 0 0 1 1.72.08c.52.31.57.74.13.99zM98.55 216.68l-4.1 2.37a1.93 1.93 0 0 1-1.73-.08c-.51-.29-.57-.74-.12-1l4.1-2.37a1.9 1.9 0 0 1 1.73.07c.51.33.57.75.12 1.01zM101.17 215.16l-.4.23a1.9 1.9 0 0 1-1.73-.07c-.51-.29-.56-.74-.12-1l.4-.23a2 2 0 0 1 1.73.07c.51.3.56.75.12 1zM103.8 213.65l-.41.23a1.94 1.94 0 0 1-1.72-.07c-.51-.3-.57-.74-.13-1l.4-.23a1.93 1.93 0 0 1 1.73.07c.51.29.57.74.13 1zM93.07 219.48a.19.19 0 0 1 0 .36.68.68 0 0 1-.62 0 .19.19 0 0 1 0-.36.68.68 0 0 1 .62 0zM108.74 210.79l-1.79 1a2 2 0 0 1-1.73-.07c-.51-.3-.56-.75-.12-1l1.79-1a1.91 1.91 0 0 1 1.72.08c.51.29.57.74.13.99zM116.2 206.49l-4.88 2.81a1.9 1.9 0 0 1-1.73-.07c-.51-.29-.56-.74-.12-1l4.87-2.81a2 2 0 0 1 1.73.07c.51.3.57.74.13 1zM84.63 214.3l-6.79 3.92a2 2 0 0 1-1.85 0 .57.57 0 0 1 0-1.07l6.79-3.92a2.08 2.08 0 0 1 1.85 0 .57.57 0 0 1 0 1.07zM92.5 209.76l-4.78 2.76a2 2 0 0 1-1.86 0 .57.57 0 0 1 0-1.07l4.79-2.76a2.08 2.08 0 0 1 1.85 0 .57.57 0 0 1 0 1.07zM98.93 206.05l-3.49 2a1.93 1.93 0 0 1-1.73-.07c-.51-.29-.56-.74-.12-1l3.49-2a1.94 1.94 0 0 1 1.72.07c.51.3.57.74.13 1zM103.71 203.29l-2.71 1.57a1.94 1.94 0 0 1-1.72-.07c-.51-.3-.57-.75-.13-1l2.72-1.57a1.91 1.91 0 0 1 1.72.07c.5.3.56.71.12 1zM115.75 196.34l-10 5.75a2 2 0 0 1-1.73-.07c-.51-.3-.57-.74-.13-1l10-5.75a1.9 1.9 0 0 1 1.73.07c.52.29.57.74.13 1zM98.43 222l-2.87 1.66a2 2 0 0 1-1.73-.07c-.51-.3-.56-.75-.12-1l2.87-1.66a2 2 0 0 1 1.73.07c.51.25.56.69.12 1zM101.11 220.4l-.4.23a1.9 1.9 0 0 1-1.73-.07c-.51-.29-.56-.74-.12-1l.4-.24a1.93 1.93 0 0 1 1.73.08c.5.3.56.75.12 1zM110.62 214.91l-7 4.06a1.9 1.9 0 0 1-1.73-.07c-.51-.29-.56-.74-.12-1l7-4.06a1.88 1.88 0 0 1 1.72.07c.51.3.57.75.13 1zM113 213.54l-.4.24a1.93 1.93 0 0 1-1.73-.08c-.51-.29-.57-.74-.13-1l.41-.23a1.88 1.88 0 0 1 1.72.07c.5.3.56.75.13 1zM115.46 212.12l-.41.23a1.91 1.91 0 0 1-1.72-.07c-.51-.29-.57-.74-.13-1l.41-.23a1.94 1.94 0 0 1 1.72.07c.51.3.57.75.13 1zM125.12 206.54l-7.19 4.15a1.9 1.9 0 0 1-1.73-.07c-.51-.29-.57-.74-.12-1l7.19-4.16a1.91 1.91 0 0 1 1.72.08c.51.3.57.75.13 1zM127.64 205.08l-.4.24a1.93 1.93 0 0 1-1.73-.08c-.51-.29-.56-.74-.12-1l.4-.24a1.93 1.93 0 0 1 1.73.08c.48.3.56.75.12 1zM130.26 203.57l-.4.23a1.93 1.93 0 0 1-1.73-.07c-.5-.29-.56-.74-.12-1l.4-.23a2 2 0 0 1 1.73.07c.51.3.56.75.12 1zM133.82 201.51l-.3.18a2 2 0 0 1-1.86 0 .57.57 0 0 1 0-1.07l.31-.17a2 2 0 0 1 1.85 0 .56.56 0 0 1 0 1.06zM123.09 228.53l-5 2.9a1.91 1.91 0 0 1-1.72-.07c-.51-.29-.57-.74-.13-1l5-2.9a2 2 0 0 1 1.73.07c.51.3.56.74.12 1zM129.57 224.79l-3.79 2.21a2 2 0 0 1-1.73-.07c-.51-.3-.57-.74-.13-1l3.8-2.19a2 2 0 0 1 1.73.07c.55.28.55.72.12.98zM140.12 218.7l-7.81 4.5a1.88 1.88 0 0 1-1.72-.07c-.51-.29-.57-.74-.13-1l7.81-4.51a2 2 0 0 1 1.73.07c.5.31.56.75.12 1.01zM82.34 146.06L183.1 87.88l-30.4 66.15L51.62 212.4l30.72-66.34z"/>
    <path class="d" d="M82.85 146.52l-29.76 64.26 99.1-57.21 29.44-64.08zm-31.23 66.54a.63.63 0 0 1-.45-.18.66.66 0 0 1-.15-.76l30.72-66.34a.66.66 0 0 1 .27-.3l100.76-58.17a.66.66 0 0 1 .77.08.68.68 0 0 1 .16.77l-30.4 66.15a.61.61 0 0 1-.27.3L52 213a.68.68 0 0 1-.38.06z"/>
    <path class="d" d="M102.53 141.76l-12.29 7c-.7.4-1 .24-.77-.35a5.09 5.09 0 0 1 1.76-1.79l12.3-7c.69-.4 1-.24.77.35a5 5 0 0 1-1.77 1.79zM84.12 163.74l-1 .56c-.8.46-1.23.35-1-.23a5.45 5.45 0 0 1 2-1.91l1-.55c.8-.46 1.23-.36 1 .23a5.51 5.51 0 0 1-2 1.9zM92.35 170.48l-2.83 1.61c-.69.4-1 .25-.76-.34a4.93 4.93 0 0 1 1.76-1.75l2.82-1.62c.7-.4 1-.24.77.35a5.09 5.09 0 0 1-1.76 1.75zM102.55 164.63l-6 3.43c-.69.4-1 .24-.76-.35a4.93 4.93 0 0 1 1.76-1.79l6-3.42c.69-.4 1-.25.76.34a4.77 4.77 0 0 1-1.76 1.79zM106.93 162.13l-.64.36c-.69.4-1 .24-.76-.34a4.77 4.77 0 0 1 1.76-1.79l.63-.37c.7-.4 1-.24.77.35a5.09 5.09 0 0 1-1.76 1.79zM96.32 149.13l-.48.28c-.8.46-1.24.35-1-.24a5.39 5.39 0 0 1 2-1.9l.49-.28c.8-.46 1.23-.35 1 .23a5.37 5.37 0 0 1-2.01 1.91zM90.19 152.64L88 153.89c-.8.46-1.23.36-1-.23a5.53 5.53 0 0 1 2-1.91l2.19-1.25c.8-.46 1.23-.35 1 .24a5.59 5.59 0 0 1-2 1.9zM106 143.59l-4.53 2.59c-.69.4-1 .24-.76-.35a4.93 4.93 0 0 1 1.76-1.79l4.52-2.59c.7-.4 1-.24.77.35a5.09 5.09 0 0 1-1.76 1.79zM110.22 141.17l-.64.36c-.69.4-1 .25-.76-.34a4.85 4.85 0 0 1 1.76-1.79l.63-.37c.7-.39 1-.24.77.35a5 5 0 0 1-1.76 1.79zM125.19 132.6l-11.08 6.34c-.69.4-1 .24-.76-.34a4.87 4.87 0 0 1 1.76-1.8l11.08-6.34c.69-.4 1-.24.76.34a4.87 4.87 0 0 1-1.76 1.8zM128.93 130.46l-.64.36c-.69.4-1 .24-.76-.35a4.93 4.93 0 0 1 1.76-1.79l.64-.36c.69-.4 1-.24.76.34a5 5 0 0 1-1.76 1.8zM132.82 128.23l-.64.36c-.69.4-1 .24-.76-.34a5 5 0 0 1 1.76-1.8l.63-.36c.7-.4 1-.24.77.35a5 5 0 0 1-1.76 1.79zM148 119.51L136.71 126c-.7.4-1 .24-.77-.34a5 5 0 0 1 1.77-1.8l11.29-6.48c.7-.4 1-.25.77.34a4.93 4.93 0 0 1-1.77 1.79zM152 117.24l-.63.36c-.69.4-1 .24-.76-.35a4.92 4.92 0 0 1 1.76-1.79l.63-.36c.7-.4 1-.24.77.35a5 5 0 0 1-1.77 1.79zM156.15 114.87l-.64.36c-.69.4-1 .25-.76-.34a4.77 4.77 0 0 1 1.76-1.79l.63-.37c.7-.39 1-.24.77.35a5 5 0 0 1-1.76 1.79zM89.92 175.68l-2.82 1.62c-.7.4-1 .24-.77-.35a5 5 0 0 1 1.77-1.79l2.82-1.61c.69-.4 1-.25.76.34a4.85 4.85 0 0 1-1.76 1.79zM100.13 169.84l-6 3.42c-.7.4-1 .24-.77-.34a4.85 4.85 0 0 1 1.76-1.79l6-3.43c.7-.4 1-.24.77.35a5 5 0 0 1-1.76 1.79zM104.5 167.33l-.63.37c-.7.39-1 .24-.77-.35a5 5 0 0 1 1.76-1.79l.64-.36c.69-.4 1-.25.76.34a4.85 4.85 0 0 1-1.76 1.79zM112.52 162.74l-4.28 2.45c-.7.4-1 .24-.76-.34a4.87 4.87 0 0 1 1.76-1.8l4.28-2.45c.69-.39 1-.24.76.35a4.93 4.93 0 0 1-1.76 1.79zM90.17 179.36l-5.5 3.14c-.69.4-1 .25-.76-.34a4.77 4.77 0 0 1 1.76-1.79l5.49-3.15c.7-.4 1-.24.77.35a5.09 5.09 0 0 1-1.76 1.79zM97.7 175l-4.28 2.45c-.69.4-1 .25-.76-.34a4.77 4.77 0 0 1 1.76-1.79l4.28-2.45c.69-.4 1-.25.76.34A4.93 4.93 0 0 1 97.7 175zM88.21 165.22l-7.68 4.4c-.7.39-1 .24-.77-.35a5 5 0 0 1 1.77-1.79l7.68-4.4c.69-.4 1-.24.76.35a5 5 0 0 1-1.76 1.79zM99.14 159l-6.46 3.7c-.7.4-1 .24-.77-.35a5.09 5.09 0 0 1 1.76-1.79l6.47-3.7c.69-.4 1-.24.76.35a4.92 4.92 0 0 1-1.76 1.79zM103.28 156.59l-.64.36c-.69.4-1 .25-.76-.34a4.77 4.77 0 0 1 1.76-1.79l.63-.37c.7-.39 1-.24.77.35a5 5 0 0 1-1.76 1.79zM107.41 154.23l-.64.36c-.69.4-1 .24-.76-.35a4.93 4.93 0 0 1 1.76-1.79l.63-.36c.7-.4 1-.24.77.34a5 5 0 0 1-1.76 1.8zM91.16 163.27a1.79 1.79 0 0 1-.65.63c-.27.15-.41.12-.32-.08a1.79 1.79 0 0 1 .65-.63c.27-.19.41-.12.32.08zM96.27 153l-10.69 6.1c-.8.46-1.24.35-1-.24a5.39 5.39 0 0 1 1.95-1.9l10.7-6.12c.8-.46 1.23-.36 1 .23a5.51 5.51 0 0 1-1.96 1.93zM108.66 145.88l-7.53 4.31c-.8.46-1.23.35-1-.23a5.37 5.37 0 0 1 2-1.91l7.53-4.31c.8-.46 1.23-.36 1 .23a5.53 5.53 0 0 1-2 1.91zM118.79 140.08l-5.49 3.14c-.7.4-1 .24-.77-.34a5 5 0 0 1 1.76-1.8l5.5-3.14c.69-.4 1-.24.76.34a5 5 0 0 1-1.76 1.8zM126.32 135.76l-4.27 2.45c-.7.4-1 .24-.77-.34a5 5 0 0 1 1.76-1.8l4.28-2.45c.7-.39 1-.24.77.35a5 5 0 0 1-1.77 1.79zM160.73 116.06l-9.38 5.37c-.7.4-1 .24-.77-.34a5 5 0 0 1 1.76-1.8l9.39-5.37c.69-.4 1-.24.76.35a4.93 4.93 0 0 1-1.76 1.79zM89.43 168.34l-4.52 2.59c-.7.39-1 .24-.77-.35a4.93 4.93 0 0 1 1.76-1.79l4.52-2.59c.7-.4 1-.24.77.34a5 5 0 0 1-1.76 1.8zM93.65 165.92l-.63.36c-.7.4-1 .24-.77-.34a5 5 0 0 1 1.76-1.8l.64-.36c.69-.4 1-.24.76.35a5 5 0 0 1-1.76 1.79zM108.62 157.34l-11.08 6.35c-.69.4-1 .24-.76-.35a4.92 4.92 0 0 1 1.76-1.79l11.08-6.34c.7-.4 1-.25.77.34a5 5 0 0 1-1.77 1.79zM90.17 183.17l-7.93 4.54c-.69.39-1 .24-.76-.35a4.93 4.93 0 0 1 1.76-1.79l7.92-4.57c.7-.4 1-.24.77.35a4.93 4.93 0 0 1-1.76 1.82zM100.37 177.33l-6 3.42c-.7.4-1 .24-.77-.35a5 5 0 0 1 1.76-1.79l6-3.42c.7-.4 1-.24.77.34a5 5 0 0 1-1.76 1.8zM137.12 175.72c7.48-4.32 13.62-14.95 13.62-23.59a12.94 12.94 0 0 0-1.09-5.51c4.89-.43 8.35 3.18 8.35 9.67 0 8.65-6.14 19.27-13.62 23.59-5.6 3.24-10.45 2.06-12.53-2.35a13.2 13.2 0 0 0 5.27-1.81z"/>
    <path class="d" d="M137.05 168.39c0 2.36.81 4 2.14 4.78s3.15.63 5.19-.55a16.06 16.06 0 0 0 7.33-12.7c0-2.36-.81-4-2.14-4.78s-3.15-.63-5.19.55a16.06 16.06 0 0 0-7.33 12.7z"/>
    <path class="d" d="M137.12 151.52c2-1.17 3.87-1.3 5.19-.54l7.26 4.16c-1.32-.75-3.15-.63-5.19.55a16.07 16.07 0 0 0-7.34 12.7c0 2.36.82 4 2.15 4.78l-7.26-4.17c-1.33-.76-2.14-2.41-2.14-4.77a16.08 16.08 0 0 1 7.33-12.71zM160.94 129.26l-7.25-4.16-6 7.31 8.03 4.63 5.22-2.88v-4.9zM157.75 141.5l6.61-1.62 7.26 4.16-5.43 4.31h-4.34l-4.1-6.85zM140.92 126.35l7.26 4.16-7.6 4.39-7.26-4.17 7.6-4.38zM133.32 130.73l-1.9 8.74 7.26 4.16 1.9-8.73-7.26-4.17zM133.81 148.79l-7.26-4.16-5.99-.4 7.25 4.16 6 .4z"/>
    <path class="d" d="M131.42 139.47l7.26 4.16a45.25 45.25 0 0 0-4.88 5.16l-7.25-4.17a44.22 44.22 0 0 1 4.87-5.15zM120.56 144.23l7.25 4.16-5.37 9.3-7.25-4.16 5.37-9.3z"/>
    <path class="d" d="M115.19 153.53l3.33 4.99 7.26 4.16-3.34-4.99-7.25-4.16zM116.5 165.32l7.25 4.17-6.61 6.01-7.26-4.17 6.62-6.01zM109.88 171.33l7.26 4.17v8.77l-7.26-4.17v-8.77z"/>
    <path class="d" d="M125.78 162.68a45.93 45.93 0 0 0-2 6.81l-7.25-4.17a44.59 44.59 0 0 1 2-6.8zM123.75 182.64a15 15 0 0 0 2 4.46l-6-3.47z"/>
    <path class="d" d="M130.76 172c0-8.64 6.13-19.27 13.62-23.59s13.62-.78 13.62 7.86-6.14 19.27-13.62 23.59-13.62.8-13.62-7.86zm-7 10.62a15 15 0 0 0 2 4.46l-3.32 8.92 5.37 3.1 6-7.32a14.66 14.66 0 0 0 4.87-.47l1.9 6.54 7.6-4.38 1.89-8.74a43.6 43.6 0 0 0 4.88-5.16l6 .4 5.37-9.3-3.34-5a43.65 43.65 0 0 0 2-6.81l6.62-6V144l-6.6 1.67a14.51 14.51 0 0 0-2-4.46l3.34-8.85-5.37-3.1-6 7.32a14.72 14.72 0 0 0-4.88.47l-1.89-6.54-7.6 4.39-1.9 8.73a44.32 44.32 0 0 0-4.87 5.16l-6-.4-5.37 9.3 3.34 5a45.93 45.93 0 0 0-2 6.81l-6.61 6v8.77z"/>
    <path class="d" d="M118.11 184.03l1.62-.4 6.05 3.47-3.34 8.85-7.25-4.17 2.92-7.75zM133 192.67l.76-.94a14.7 14.7 0 0 0 4.88-.47l1.9 6.54-8-4.58zM154.91 136.58a14.65 14.65 0 0 0-4.83.47l-1.14-3.92zM83.69 147.44l25.09 97.77M108.78 247.19a2 2 0 0 1-1.92-1.49l-25.09-97.77a2 2 0 1 1 3.84-1l25.09 97.78a2 2 0 0 1-1.42 2.41 2.2 2.2 0 0 1-.5.07zM166.86 198.72c.19-.11.38-.24.58-.37a11.7 11.7 0 0 0 1.16-.9c.23-.2.46-.41.68-.63l.48-.51q.33-.36.63-.75a14.18 14.18 0 0 0 1-1.34c.3-.46.58-.94.83-1.42s.48-1 .68-1.51c.12-.31.23-.61.33-.92s.14-.45.2-.67.15-.61.21-.91a10.66 10.66 0 0 0 .2-1.46v-.68-.35l.27-.14a6.75 6.75 0 0 1 1.17-.44 4.14 4.14 0 0 1 .68-.15h.48a4.33 4.33 0 0 1 .63 0 3.37 3.37 0 0 1 1 .23 3.18 3.18 0 0 1 .82.47 3.58 3.58 0 0 1 .68.72 3.71 3.71 0 0 1 .33.54 3.49 3.49 0 0 1 .2.44 4.38 4.38 0 0 1 .22.67 8.4 8.4 0 0 1 .2 1.22v1.34c0 .48-.11 1-.2 1.46-.06.3-.13.6-.22.91s-.12.44-.2.67-.21.61-.33.92c-.2.51-.42 1-.67 1.5s-.53 1-.83 1.43-.62.91-1 1.34a9.09 9.09 0 0 1-.63.74q-.24.27-.48.51c-.23.23-.45.44-.68.64a12.17 12.17 0 0 1-1.17.9c-.19.13-.38.26-.58.37s-.39.21-.58.3a6.67 6.67 0 0 1-1.16.44 4.38 4.38 0 0 1-.68.15l-.48.05a4.33 4.33 0 0 1-.63 0 3.44 3.44 0 0 1-1-.23 3.35 3.35 0 0 1-.82-.47 3.6 3.6 0 0 1-.68-.72 4.86 4.86 0 0 1-.33-.54c-.07-.14-.14-.29-.2-.44a6.37 6.37 0 0 1-.21-.66 6.58 6.58 0 0 1-.2-1.23v-.31zM170.6 207.78V211a1.62 1.62 0 0 0 .68 1.5l-4.05-2.34 1.23-2.12a7 7 0 0 0 2.14-.26zM171.9 177.19l6.65 3.84a7 7 0 0 0-2.14.21l-6.65-3.84a7.33 7.33 0 0 1 2.14-.21zM178 172.41l5.82 3.36c-.9-.52-2.38.33-3.28 1.9l-1.54 2.67-.4.69-2.14-1.24v-.92l-.4.69-4.11-2.37 1.94-3.36c.91-1.57 2.38-2.42 3.29-1.9l.82.48"/>
    <path class="d" d="M180.45 189.83V191.17c0 .48-.11 1-.2 1.46-.06.3-.13.6-.22.91s-.12.45-.2.67-.21.61-.33.92a14.38 14.38 0 0 1-.68 1.5 15.55 15.55 0 0 1-.82 1.43c-.3.46-.62.91-1 1.34-.2.26-.42.5-.63.74s-.32.35-.48.51-.45.44-.68.64a12.17 12.17 0 0 1-1.17.9c-.19.13-.38.26-.58.37a5.34 5.34 0 0 1-.58.3 6.67 6.67 0 0 1-1.16.44 4.38 4.38 0 0 1-.68.15l-.48.05a4.33 4.33 0 0 1-.63 0 3.44 3.44 0 0 1-1-.23 3.06 3.06 0 0 1-.82-.47 3.6 3.6 0 0 1-.68-.72 4.86 4.86 0 0 1-.33-.54c-.07-.14-.14-.29-.2-.44a6.37 6.37 0 0 1-.21-.66 6.58 6.58 0 0 1-.2-1.23v-.65-.69a10.66 10.66 0 0 1 .2-1.46c.06-.3.13-.6.21-.91s.13-.44.2-.67.21-.61.33-.92c.2-.51.43-1 .68-1.5s.53-1 .82-1.43.63-.91 1-1.34c.2-.26.41-.5.63-.74s.32-.35.48-.51.45-.44.68-.64a12.05 12.05 0 0 1 1.16-.9c.19-.13.39-.26.58-.37l.58-.3a6.75 6.75 0 0 1 1.17-.44 4.14 4.14 0 0 1 .68-.15h.48a4.38 4.38 0 0 1 .63 0 3.37 3.37 0 0 1 1 .23 3.18 3.18 0 0 1 .82.47 3.34 3.34 0 0 1 .68.72 3.71 3.71 0 0 1 .33.54 3.49 3.49 0 0 1 .2.44 4.64 4.64 0 0 1 .22.66 8.78 8.78 0 0 1 .2 1.18zm8.16-3.37v-1.34a1.41 1.41 0 0 0-2.32-1.34l-2.75 1.58a7 7 0 0 0-.88-2l1.94-3.36c.9-1.57.9-3.27 0-3.79l-.83-.48c-.9-.52-2.38.33-3.28 1.9l-1.94 3.37a7.33 7.33 0 0 0-2.14.21v-3.17a1.62 1.62 0 0 0-.68-1.5 1.65 1.65 0 0 0-1.65.16l-1.16.67a5.15 5.15 0 0 0-2.32 4v3.17a21.81 21.81 0 0 0-2.14 2.25l-1.94-1.12c-.91-.52-2.38.33-3.29 1.9l-.82 1.43c-.91 1.57-.91 3.27 0 3.79l1.94 1.12a22.46 22.46 0 0 0-.89 3l-2.74 1.59a5.13 5.13 0 0 0-2.32 4v1.34a1.41 1.41 0 0 0 2.32 1.34l2.74-1.58a7.35 7.35 0 0 0 .89 2l-1.94 3.4c-.91 1.57-.91 3.27 0 3.79l.82.48a1.67 1.67 0 0 0 1.65-.16 4.77 4.77 0 0 0 1.64-1.74l1.94-3.36a7 7 0 0 0 2.14-.21v3.2a1.42 1.42 0 0 0 2.32 1.34l1.16-.67a5.16 5.16 0 0 0 2.33-4v-3.16a23 23 0 0 0 2.14-2.26l1.94 1.12a1.63 1.63 0 0 0 1.64-.17 4.66 4.66 0 0 0 1.64-1.73l.83-1.42c.9-1.57.9-3.28 0-3.8l-1.94-1.12a21 21 0 0 0 .88-3l2.75-1.59a5.12 5.12 0 0 0 2.32-4.08z"/>
    <path class="d" d="M166.27 173.56l1.17-.67a1.63 1.63 0 0 1 1.64-.16l6.65 3.84a1.65 1.65 0 0 0-1.65.16l-1.16.67a5.15 5.15 0 0 0-2.32 4v3.17l-6.6-3.81v-3.17a5.17 5.17 0 0 1 2.27-4.03z"/>
    <path class="d" d="M164 180.76l6.65 3.84a21.81 21.81 0 0 0-2.14 2.25l-6.7-3.85a21 21 0 0 1 2.19-2.24zM155.76 185.22l.82-1.43c.91-1.57 2.39-2.42 3.29-1.89l6.5 3.75c-.92-.36-2.27.47-3.13 1.95l-.82 1.42c-.91 1.57-.91 3.28 0 3.8l-6.66-3.82c-.9-.51-.9-2.21 0-3.78zM155.76 205.14l1.94-3.35.73.42a2.19 2.19 0 0 0 0 .36v1.34a1.41 1.41 0 0 0 2.32 1.34l1.49-.85 2.14 1.23-1.97 3.37c-.91 1.57-.91 3.27 0 3.79l-5.83-3.36-.82-.47c-.9-.55-.9-2.25 0-3.82z"/>
    <path class="d" d="M151.75 200.06v-1.34a5.13 5.13 0 0 1 2.32-4l2.75-1.59 6.64 3.84-2.74 1.59a5.13 5.13 0 0 0-2.32 4v1.34a1.65 1.65 0 0 0 .68 1.51l-6.65-3.84a1.63 1.63 0 0 1-.68-1.51zM156.82 193.11a21 21 0 0 1 .88-3l2.62 1.52 2.09 1.2 1.94 1.12a22.46 22.46 0 0 0-.89 3l-3.57-2.06zM164.35 205.62l-2.14-1.23 1.25-.73a7.35 7.35 0 0 0 .89 1.96zM186.29 183.78l-2.75 1.58a7 7 0 0 0-.88-2l1.22-2.12 4.05 2.33a1.64 1.64 0 0 0-1.64.21zM108.78 245.44l13 7.48a12.69 12.69 0 0 0 11.45 0l19.54-11.28L178 227.05l25.27-14.59 19.55-11.29a3.49 3.49 0 0 0 0-6.61l-13-7.52-.23.06-100.78 58.17z"/>
    <path class="d" d="M185.36 215.15l-12.25-7.08-28.53 16.47 12.25 7.08a5.46 5.46 0 0 0 4.92 0L185.36 218c1.35-.79 1.35-2.07 0-2.85z"/>
    <path class="d" d="M222.79 201.11l-19.54 11.29L178 227l-25.3 14.58-19.55 11.28a12.67 12.67 0 0 1-11.44 0l-19.55-11.28L76.89 227l-25.27-14.6s0 5.29 4.29 7.77l21 12.11 25.27 14.59 19.55 11.28a12.67 12.67 0 0 0 11.44 0l19.55-11.28L178 232.28l25.28-14.59 19.54-11.29a4 4 0 0 0 2.36-3.31v-5.28a4 4 0 0 1-2.39 3.3zM117.93 112.58c1.55.54 3.23 1.59 3.19 3.1 0 1.26-1.28 2.21-2.51 2.8s-2.62 1.08-3.41 2.12a3.77 3.77 0 0 0 .06 4.25 6.17 6.17 0 0 0 .79 1L146.87 108V82.25c0-2.18-1.54-3.08-3.43-2l-24.13 13.94a4.28 4.28 0 0 1 1 1.6c.68 2-.43 4.08-1.86 5.67s-3.24 3-4.33 4.75a3.88 3.88 0 0 0-.35 4.05c.83 1.31 2.61 1.77 4.16 2.32M57.45 133.88v64.32l24.27-52.39a.66.66 0 0 1 .27-.3l1.59-.92c-1.21-3-.82-6.83 1.8-8.69 1.76-1.26 4.59-1.94 4.64-4.11.07-2.73-4.31-3.13-5.54-5.57-1-1.87.34-4.09 1.7-5.7s2.96-3.52 2.59-5.52a3.77 3.77 0 0 0-1.47-2.29l-26.42 15.22a7.62 7.62 0 0 0-3.43 5.95"/>
    <path class="d" d="M117.93 112.58c-1.55-.55-3.33-1-4.16-2.32a3.88 3.88 0 0 1 .35-4.05c1.09-1.8 2.89-3.15 4.33-4.75s2.54-3.71 1.86-5.67a4.28 4.28 0 0 0-1-1.6l-32 18.48a3.85 3.85 0 0 1 1.46 2.33c.37 2.07-1.22 3.92-2.57 5.53s-2.66 3.83-1.7 5.7c1.23 2.44 5.61 2.84 5.54 5.57-.05 2.17-2.88 2.85-4.64 4.11-2.62 1.86-3 5.7-1.8 8.69l32.45-18.73a6.17 6.17 0 0 1-.79-1 3.77 3.77 0 0 1-.06-4.25c.79-1 2.18-1.52 3.41-2.12s2.47-1.54 2.51-2.8c0-1.51-1.64-2.56-3.19-3.1"/>
    <path class="e" d="M76.89 227l25.27 14.59 19.55 11.28a12.67 12.67 0 0 0 11.44 0l19.55-11.28L178 227l25.27-14.59 19.55-11.29a3.49 3.49 0 0 0 0-6.61l-19.55-11.28L152.7 154l-50.54 29.18-25.27 14.63-25.27 14.59L76.89 227"/>
    <path class="f" d="M76.89 227l25.27 14.59 19.55 11.28a12.67 12.67 0 0 0 11.44 0l19.55-11.28L178 227l25.27-14.59 19.55-11.29a3.49 3.49 0 0 0 0-6.61l-19.55-11.28L152.7 154l-50.54 29.18-25.27 14.63-25.27 14.59L76.89 227"/>
    <path class="g" d="M209.54 187.04l-100.76 58.17-57.16-32.81 101.08-58.37 56.84 33.01z"/>
    <path class="f" d="M209.54 187.04l-100.76 58.17-57.16-32.81 101.08-58.37 56.84 33.01z"/>
    <path class="h" d="M127.43 168.63l-25.27 14.59-25.27 14.59-25.27 14.59v-80.94a12.69 12.69 0 0 1 5.72-9.91l19.55-11.29 25.27-14.59 25.27-14.59L147 69.8a4.11 4.11 0 0 1 3.9-.47c1.12.56 1.82 1.87 1.82 3.77V154l-25.27 14.59"/>
    <path class="f" d="M127.43 168.63l-25.27 14.59-25.27 14.59-25.27 14.59v-80.94a12.69 12.69 0 0 1 5.72-9.91l19.55-11.29 25.27-14.59 25.27-14.59L147 69.8a4.11 4.11 0 0 1 3.9-.47c1.12.56 1.82 1.87 1.82 3.77V154l-25.27 14.59"/>
    <path d="M143.44 80.26c1.89-1.09 3.43-.19 3.43 2v64a7.62 7.62 0 0 1-3.43 5.95l-82.56 47.62c-1.89 1.09-3.43.2-3.43-2v-64a7.62 7.62 0 0 1 3.43-5.95z" fill="#506e91" fill-rule="evenodd"/>
    <path class="g" d="M82.34 146.06L183.1 87.88l-30.4 66.15L51.62 212.4l30.72-66.34z"/>
    <path class="f" d="M82.34 146.06L183.1 87.88l-30.4 66.15L51.62 212.4l30.72-66.34z"/>
    <path class="h" d="M152.7 154.03v65.82l56.84-32.81-56.84-33.01z"/>
    <path class="f" d="M152.7 154.03v65.82l56.84-32.81-56.84-33.01z"/>
    <path class="e" d="M150.88 69.33l-5.29-2.65a4.14 4.14 0 0 0-3.9.47l-19.55 11.29L96.87 93 71.6 107.62 52.05 118.9a12.7 12.7 0 0 0-5.72 9.92v75.72c0 1.25.58 5.15 5.28 7.86v-80.94a12.69 12.69 0 0 1 5.72-9.91l19.55-11.29 25.27-14.59 25.27-14.59L147 69.8a4.08 4.08 0 0 1 3.9-.47"/>
    <path class="f" d="M150.88 69.33l-5.29-2.65a4.14 4.14 0 0 0-3.9.47l-19.55 11.29L96.87 93 71.6 107.62 52.05 118.9a12.7 12.7 0 0 0-5.72 9.92v75.72c0 1.25.58 5.15 5.28 7.86v-80.94a12.69 12.69 0 0 1 5.72-9.91l19.55-11.29 25.27-14.59 25.27-14.59L147 69.8a4.08 4.08 0 0 1 3.88-.47z"/>
    <path class="j" d="M51.62 212.4l57.16 32.81 43.92-25.36v-65.82L51.62 212.4z"/>
    <path class="f" d="M51.62 212.4l57.16 32.81 43.92-25.36v-65.82L51.62 212.4z"/>
    <path class="j" d="M152.7 154.03v.01-.01L51.62 212.4l57.16 32.81 100.76-58.17-56.84-33.01z"/>
    <path class="f" d="M152.7 154.03v.01-.01L51.62 212.4l57.16 32.81 100.76-58.17-56.84-33.01z"/>
    <path class="a" d="M76.51 208.58l-7.8 4.51A2 2 0 0 1 67 213c-.51-.3-.57-.75-.13-1l7.81-4.51a1.93 1.93 0 0 1 1.73.08c.51.29.56.74.12 1"/>
    <path class="k" d="M83 220.47l-.62.35a2 2 0 0 1-1.85 0 .56.56 0 0 1 0-1.06l.62-.36a2.08 2.08 0 0 1 1.85 0 .57.57 0 0 1 0 1.07"/>
    <path class="l" d="M106.33 222.59l-1.79 1a2 2 0 0 1-1.73-.07c-.51-.3-.56-.75-.12-1l1.79-1a2 2 0 0 1 1.73.07c.51.3.56.75.12 1"/>
    <path class="a" d="M112.81 218.85L109 221a1.88 1.88 0 0 1-1.72-.07c-.51-.29-.57-.74-.13-1l3.8-2.2a2 2 0 0 1 1.73.07c.5.3.56.75.12 1"/>
    <path class="m" d="M115.59 217.25l-.41.23a1.91 1.91 0 0 1-1.72-.07c-.51-.29-.57-.74-.13-1l.41-.23a1.94 1.94 0 0 1 1.72.07c.51.3.57.75.13 1"/>
    <path class="a" d="M120.68 214.31l-2.68 1.57a2 2 0 0 1-1.73-.07c-.51-.3-.56-.75-.12-1l2.72-1.57a1.94 1.94 0 0 1 1.72.07c.51.3.57.75.13 1M122.29 213a.19.19 0 0 1 0 .36.68.68 0 0 1-.62 0 .19.19 0 0 1 0-.36.68.68 0 0 1 .62 0M133 207.18l-9.2 5.31a1.9 1.9 0 0 1-1.73-.07c-.5-.29-.56-.74-.12-1l9.2-5.3a1.88 1.88 0 0 1 1.72.07c.51.29.57.74.13 1"/>
    <path class="m" d="M136.26 205.32l-.41.23a1.94 1.94 0 0 1-1.72-.07c-.51-.3-.57-.75-.13-1l.41-.23a1.88 1.88 0 0 1 1.72.07c.51.29.57.74.13 1"/>
    <path class="a" d="M78.62 212.57l-.31.18a2.08 2.08 0 0 1-1.85 0 .57.57 0 0 1 0-1.07l.31-.18a2.08 2.08 0 0 1 1.85 0 .57.57 0 0 1 0 1.07"/>
    <path class="k" d="M74.72 214.82l-1.38.8a2.1 2.1 0 0 1-1.86 0 .57.57 0 0 1 0-1.07l1.39-.8a2.08 2.08 0 0 1 1.85 0 .57.57 0 0 1 0 1.07"/>
    <path class="n" d="M84.76 209l-2.87 1.65a1.9 1.9 0 0 1-1.73-.07c-.51-.29-.57-.74-.12-1l2.87-1.58a1.88 1.88 0 0 1 1.72.07c.51.29.57.74.13 1"/>
    <path class="a" d="M87.44 207.48l-.41.23a1.91 1.91 0 0 1-1.72-.07c-.51-.3-.57-.74-.13-1l.41-.23a1.94 1.94 0 0 1 1.72.07c.51.3.57.74.13 1"/>
    <path class="l" d="M96.94 202l-7 4.06a1.93 1.93 0 0 1-1.73-.07c-.51-.29-.56-.74-.12-1l7-4.06a2 2 0 0 1 1.73.07c.51.3.56.75.12 1"/>
    <path class="a" d="M99.31 200.62l-.4.23a1.9 1.9 0 0 1-1.73-.07c-.5-.29-.56-.74-.12-1l.4-.23a2 2 0 0 1 1.73.07c.51.3.56.75.12 1"/>
    <path class="o" d="M101.78 199.2l-.4.23a2 2 0 0 1-1.73-.07c-.51-.3-.56-.74-.12-1l.4-.23a1.93 1.93 0 0 1 1.73.07c.51.29.56.74.12 1M111.44 193.62l-7.19 4.15a1.94 1.94 0 0 1-1.72-.07c-.51-.3-.57-.75-.13-1l7.19-4.15a2 2 0 0 1 1.73.07c.51.3.56.75.12 1"/>
    <path class="l" d="M110.84 225.19l-1.79 1a2 2 0 0 1-1.73-.07c-.51-.3-.56-.75-.12-1l1.79-1a1.91 1.91 0 0 1 1.72.08c.51.29.57.74.13 1"/>
    <path class="a" d="M117.32 221.45l-3.8 2.19a1.9 1.9 0 0 1-1.73-.07c-.5-.29-.56-.74-.12-1l3.8-2.2a1.91 1.91 0 0 1 1.72.08c.51.29.57.74.13 1"/>
    <path class="m" d="M120.09 219.85l-.4.23A1.9 1.9 0 0 1 118 220c-.5-.29-.56-.74-.12-1l.4-.24a2 2 0 0 1 1.73.07c.51.3.56.75.12 1"/>
    <path class="a" d="M125.18 216.91l-2.71 1.57a1.93 1.93 0 0 1-1.73-.07c-.51-.29-.56-.74-.12-1l2.71-1.57a1.93 1.93 0 0 1 1.73.08c.51.29.56.74.12 1M126.8 215.62a.19.19 0 0 1 0 .36.68.68 0 0 1-.62 0 .19.19 0 0 1 0-.36.75.75 0 0 1 .62 0M141.69 207.38l-13.36 7.72a1.93 1.93 0 0 1-1.73-.08c-.51-.29-.56-.74-.12-1l13.36-7.72a1.91 1.91 0 0 1 1.72.08c.51.29.57.74.13 1"/>
    <path class="m" d="M145.24 205.33l-.41.24a1.94 1.94 0 0 1-1.72-.07c-.51-.3-.57-.75-.13-1l.41-.23a1.88 1.88 0 0 1 1.72.07c.51.29.57.74.13 1"/>
    <path class="l" d="M139 214.16l-1.79 1a1.93 1.93 0 0 1-1.73-.07c-.51-.3-.56-.74-.12-1l1.79-1a1.93 1.93 0 0 1 1.73.07c.51.29.56.74.12 1"/>
    <path class="a" d="M145.45 210.42l-3.8 2.19a1.94 1.94 0 0 1-1.72-.07c-.51-.3-.57-.75-.13-1l3.8-2.19a1.88 1.88 0 0 1 1.72.07c.52.29.57.74.13 1M117 226.82l-3.49 2a1.94 1.94 0 0 1-1.72-.07c-.51-.3-.57-.74-.13-1l3.49-2a1.93 1.93 0 0 1 1.73.07c.51.29.56.74.12 1"/>
    <path class="l" d="M121.82 224.06l-2.71 1.57a1.93 1.93 0 0 1-1.73-.08c-.51-.29-.56-.74-.12-1L120 223a1.93 1.93 0 0 1 1.73.07c.51.29.56.74.12 1"/>
    <path class="a" d="M133.87 217.1l-10 5.76a2 2 0 0 1-1.73-.07c-.5-.3-.56-.75-.12-1L132 216a1.91 1.91 0 0 1 1.72.08c.51.29.57.74.13 1M91.61 220.68l-4.88 2.82a1.94 1.94 0 0 1-1.72-.07c-.51-.3-.57-.75-.13-1l4.88-2.82a1.91 1.91 0 0 1 1.72.08c.52.29.57.74.13 1M98.55 216.68l-4.1 2.37a1.93 1.93 0 0 1-1.73-.08c-.51-.29-.57-.74-.12-1l4.1-2.37a1.9 1.9 0 0 1 1.73.07c.51.29.56.74.12 1"/>
    <path class="m" d="M101.17 215.16l-.4.23a1.9 1.9 0 0 1-1.73-.07c-.51-.29-.56-.74-.12-1l.4-.23a2 2 0 0 1 1.73.07c.51.3.56.75.12 1"/>
    <path class="a" d="M103.8 213.65l-.41.23a1.94 1.94 0 0 1-1.72-.07c-.51-.3-.57-.74-.13-1l.4-.23a1.93 1.93 0 0 1 1.73.07c.51.29.57.74.13 1M93.07 219.48a.19.19 0 0 1 0 .36.68.68 0 0 1-.62 0 .19.19 0 0 1 0-.36.68.68 0 0 1 .62 0"/>
    <path class="l" d="M108.74 210.79l-1.79 1a2 2 0 0 1-1.73-.07c-.51-.3-.56-.75-.12-1l1.79-1a1.91 1.91 0 0 1 1.72.08c.51.29.57.74.13 1"/>
    <path class="a" d="M116.2 206.49l-4.88 2.81a1.9 1.9 0 0 1-1.73-.07c-.51-.29-.56-.74-.12-1l4.87-2.81a2 2 0 0 1 1.73.07c.51.3.57.74.13 1"/>
    <path class="k" d="M84.63 214.3l-6.79 3.92a2 2 0 0 1-1.85 0 .57.57 0 0 1 0-1.07l6.79-3.92a2.08 2.08 0 0 1 1.85 0 .57.57 0 0 1 0 1.07M92.5 209.76l-4.78 2.76a2 2 0 0 1-1.86 0 .57.57 0 0 1 0-1.07l4.79-2.76a2.08 2.08 0 0 1 1.85 0 .57.57 0 0 1 0 1.07"/>
    <path class="a" d="M98.93 206.05l-3.49 2a1.93 1.93 0 0 1-1.73-.07c-.51-.29-.56-.74-.12-1l3.49-2a1.94 1.94 0 0 1 1.72.07c.51.3.57.74.13 1"/>
    <path class="l" d="M103.71 203.29l-2.71 1.57a1.94 1.94 0 0 1-1.72-.07c-.51-.3-.57-.75-.13-1l2.72-1.57a1.91 1.91 0 0 1 1.72.07c.51.3.57.74.13 1"/>
    <path class="a" d="M115.75 196.34l-10 5.75a2 2 0 0 1-1.73-.07c-.51-.3-.57-.74-.13-1l10-5.75a1.9 1.9 0 0 1 1.73.07c.51.29.56.74.12 1"/>
    <path class="n" d="M98.43 222l-2.87 1.66a2 2 0 0 1-1.73-.07c-.51-.3-.56-.75-.12-1l2.87-1.66a2 2 0 0 1 1.73.07c.51.3.56.74.12 1"/>
    <path class="a" d="M101.11 220.4l-.4.23a1.9 1.9 0 0 1-1.73-.07c-.51-.29-.56-.74-.12-1l.4-.24a1.93 1.93 0 0 1 1.73.08c.5.29.56.74.12 1"/>
    <path class="l" d="M110.62 214.91l-7 4.06a1.9 1.9 0 0 1-1.73-.07c-.51-.29-.56-.74-.12-1l7-4.06a1.88 1.88 0 0 1 1.72.07c.51.29.57.74.13 1"/>
    <path class="a" d="M113 213.54l-.4.24a1.93 1.93 0 0 1-1.73-.08c-.51-.29-.57-.74-.13-1l.41-.23a1.88 1.88 0 0 1 1.72.07c.51.29.57.74.13 1"/>
    <path class="o" d="M115.46 212.12l-.41.23a1.91 1.91 0 0 1-1.72-.07c-.51-.29-.57-.74-.13-1l.41-.23a1.94 1.94 0 0 1 1.72.07c.51.3.57.75.13 1M125.12 206.54l-7.19 4.15a1.9 1.9 0 0 1-1.73-.07c-.51-.29-.57-.74-.12-1l7.19-4.16a1.91 1.91 0 0 1 1.72.08c.51.29.57.74.13 1"/>
    <path class="a" d="M127.64 205.08l-.4.24a1.93 1.93 0 0 1-1.73-.08c-.51-.29-.56-.74-.12-1l.4-.24a1.93 1.93 0 0 1 1.73.08c.51.29.56.74.12 1M130.26 203.57l-.4.23a1.93 1.93 0 0 1-1.73-.07c-.5-.29-.56-.74-.12-1l.4-.23a2 2 0 0 1 1.73.07c.51.3.56.75.12 1"/>
    <path class="m" d="M133.82 201.51l-.3.18a2 2 0 0 1-1.86 0 .57.57 0 0 1 0-1.07l.31-.17a2 2 0 0 1 1.85 0 .56.56 0 0 1 0 1.06M123.09 228.53l-5 2.9a1.91 1.91 0 0 1-1.72-.07c-.51-.29-.57-.74-.13-1l5-2.9a2 2 0 0 1 1.73.07c.51.3.56.74.12 1"/>
    <path class="a" d="M129.57 224.79l-3.79 2.21a2 2 0 0 1-1.73-.07c-.51-.3-.57-.74-.13-1l3.8-2.19a2 2 0 0 1 1.73.07c.51.3.56.74.12 1M140.12 218.7l-7.81 4.5a1.88 1.88 0 0 1-1.72-.07c-.51-.29-.57-.74-.13-1l7.81-4.51a2 2 0 0 1 1.73.07c.5.3.56.74.12 1"/>
    <path class="h" d="M82.34 146.06L183.1 87.88l-30.4 66.15L51.62 212.4l30.72-66.34z"/>
    <path class="g" d="M82.85 146.52l-29.76 64.26 99.1-57.21 29.44-64.08zm-31.23 66.54a.63.63 0 0 1-.45-.18.66.66 0 0 1-.15-.76l30.72-66.34a.66.66 0 0 1 .27-.3l100.76-58.17a.66.66 0 0 1 .77.08.68.68 0 0 1 .16.77l-30.4 66.15a.61.61 0 0 1-.27.3L52 213a.68.68 0 0 1-.33.09z"/>
    <path class="a" d="M102.53 141.76l-12.29 7c-.7.4-1 .24-.77-.35a5.09 5.09 0 0 1 1.76-1.79l12.3-7c.69-.4 1-.24.77.35a5 5 0 0 1-1.77 1.79"/>
    <path class="k" d="M84.12 163.74l-1 .56c-.8.46-1.23.35-1-.23a5.45 5.45 0 0 1 2-1.91l1-.55c.8-.46 1.23-.36 1 .23a5.51 5.51 0 0 1-2 1.9"/>
    <path class="l" d="M92.35 170.48l-2.83 1.61c-.69.4-1 .25-.76-.34a4.93 4.93 0 0 1 1.76-1.75l2.82-1.62c.7-.4 1-.24.77.35a5.09 5.09 0 0 1-1.76 1.79"/>
    <path class="a" d="M102.55 164.63l-6 3.43c-.69.4-1 .24-.76-.35a4.93 4.93 0 0 1 1.76-1.79l6-3.42c.69-.4 1-.25.76.34a4.77 4.77 0 0 1-1.76 1.79"/>
    <path class="m" d="M106.93 162.13l-.64.36c-.69.4-1 .24-.76-.34a4.77 4.77 0 0 1 1.76-1.79l.63-.37c.7-.4 1-.24.77.35a5.09 5.09 0 0 1-1.76 1.79"/>
    <path class="a" d="M96.32 149.13l-.48.28c-.8.46-1.24.35-1-.24a5.39 5.39 0 0 1 2-1.9l.49-.28c.8-.46 1.23-.35 1 .23a5.37 5.37 0 0 1-2 1.91"/>
    <path class="k" d="M90.19 152.64L88 153.89c-.8.46-1.23.36-1-.23a5.53 5.53 0 0 1 2-1.91l2.19-1.25c.8-.46 1.23-.35 1 .24a5.59 5.59 0 0 1-2 1.9"/>
    <path class="n" d="M106 143.59l-4.53 2.59c-.69.4-1 .24-.76-.35a4.93 4.93 0 0 1 1.76-1.79l4.52-2.59c.7-.4 1-.24.77.35a5.09 5.09 0 0 1-1.76 1.79"/>
    <path class="a" d="M110.22 141.17l-.64.36c-.69.4-1 .25-.76-.34a4.85 4.85 0 0 1 1.76-1.79l.63-.37c.7-.39 1-.24.77.35a5 5 0 0 1-1.76 1.79"/>
    <path class="l" d="M125.19 132.6l-11.08 6.34c-.69.4-1 .24-.76-.34a4.87 4.87 0 0 1 1.76-1.8l11.08-6.34c.69-.4 1-.24.76.34a4.87 4.87 0 0 1-1.76 1.8"/>
    <path class="a" d="M128.93 130.46l-.64.36c-.69.4-1 .24-.76-.35a4.93 4.93 0 0 1 1.76-1.79l.64-.36c.69-.4 1-.24.76.34a5 5 0 0 1-1.76 1.8"/>
    <path class="o" d="M132.82 128.23l-.64.36c-.69.4-1 .24-.76-.34a5 5 0 0 1 1.76-1.8l.63-.36c.7-.4 1-.24.77.35a5 5 0 0 1-1.76 1.79M148 119.51L136.71 126c-.7.4-1 .24-.77-.34a5 5 0 0 1 1.77-1.8l11.29-6.48c.7-.4 1-.25.77.34a4.93 4.93 0 0 1-1.76 1.79"/>
    <path class="a" d="M152 117.24l-.63.36c-.69.4-1 .24-.76-.35a4.92 4.92 0 0 1 1.76-1.79l.63-.36c.7-.4 1-.24.77.35a5 5 0 0 1-1.77 1.79M156.15 114.87l-.64.36c-.69.4-1 .25-.76-.34a4.77 4.77 0 0 1 1.76-1.79l.63-.37c.7-.39 1-.24.77.35a5 5 0 0 1-1.76 1.79"/>
    <path class="l" d="M89.92 175.68l-2.82 1.62c-.7.4-1 .24-.77-.35a5 5 0 0 1 1.77-1.79l2.82-1.61c.69-.4 1-.25.76.34a4.85 4.85 0 0 1-1.76 1.79"/>
    <path class="a" d="M100.13 169.84l-6 3.42c-.7.4-1 .24-.77-.34a4.85 4.85 0 0 1 1.76-1.79l6-3.43c.7-.4 1-.24.77.35a5 5 0 0 1-1.76 1.79"/>
    <path class="m" d="M104.5 167.33l-.63.37c-.7.39-1 .24-.77-.35a5 5 0 0 1 1.76-1.79l.64-.36c.69-.4 1-.25.76.34a4.85 4.85 0 0 1-1.76 1.79"/>
    <path class="a" d="M112.52 162.74l-4.28 2.45c-.7.4-1 .24-.76-.34a4.87 4.87 0 0 1 1.76-1.8l4.28-2.45c.69-.39 1-.24.76.35a4.93 4.93 0 0 1-1.76 1.79M90.17 179.36l-5.5 3.14c-.69.4-1 .25-.76-.34a4.77 4.77 0 0 1 1.76-1.79l5.49-3.15c.7-.4 1-.24.77.35a5.09 5.09 0 0 1-1.76 1.79"/>
    <path class="l" d="M97.7 175l-4.28 2.45c-.69.4-1 .25-.76-.34a4.77 4.77 0 0 1 1.76-1.79l4.28-2.45c.69-.4 1-.25.76.34A4.93 4.93 0 0 1 97.7 175"/>
    <path class="a" d="M88.21 165.22l-7.68 4.4c-.7.39-1 .24-.77-.35a5 5 0 0 1 1.77-1.79l7.68-4.4c.69-.4 1-.24.76.35a5 5 0 0 1-1.76 1.79M99.14 159l-6.46 3.7c-.7.4-1 .24-.77-.35a5.09 5.09 0 0 1 1.76-1.79l6.47-3.7c.69-.4 1-.24.76.35a4.92 4.92 0 0 1-1.76 1.79"/>
    <path class="m" d="M103.28 156.59l-.64.36c-.69.4-1 .25-.76-.34a4.77 4.77 0 0 1 1.76-1.79l.63-.37c.7-.39 1-.24.77.35a5 5 0 0 1-1.76 1.79"/>
    <path class="a" d="M107.41 154.23l-.64.36c-.69.4-1 .24-.76-.35a4.93 4.93 0 0 1 1.76-1.79l.63-.36c.7-.4 1-.24.77.34a5 5 0 0 1-1.76 1.8M91.16 163.27a1.79 1.79 0 0 1-.65.63c-.27.15-.41.12-.32-.08a1.79 1.79 0 0 1 .65-.63c.27-.16.41-.12.32.08"/>
    <path class="k" d="M96.27 153l-10.69 6.1c-.8.46-1.24.35-1-.24a5.39 5.39 0 0 1 1.95-1.9l10.7-6.12c.8-.46 1.23-.36 1 .23a5.51 5.51 0 0 1-2 1.9M108.66 145.88l-7.53 4.31c-.8.46-1.23.35-1-.23a5.37 5.37 0 0 1 2-1.91l7.53-4.31c.8-.46 1.23-.36 1 .23a5.53 5.53 0 0 1-2 1.91"/>
    <path class="a" d="M118.79 140.08l-5.49 3.14c-.7.4-1 .24-.77-.34a5 5 0 0 1 1.76-1.8l5.5-3.14c.69-.4 1-.24.76.34a5 5 0 0 1-1.76 1.8"/>
    <path class="l" d="M126.32 135.76l-4.27 2.45c-.7.4-1 .24-.77-.34a5 5 0 0 1 1.76-1.8l4.28-2.45c.7-.39 1-.24.77.35a5 5 0 0 1-1.77 1.79"/>
    <path class="n" d="M160.73 116.06l-9.38 5.37c-.7.4-1 .24-.77-.34a5 5 0 0 1 1.76-1.8l9.39-5.37c.69-.4 1-.24.76.35a4.93 4.93 0 0 1-1.76 1.79M89.43 168.34l-4.52 2.59c-.7.39-1 .24-.77-.35a4.93 4.93 0 0 1 1.76-1.79l4.52-2.59c.7-.4 1-.24.77.34a5 5 0 0 1-1.76 1.8"/>
    <path class="a" d="M93.65 165.92l-.63.36c-.7.4-1 .24-.77-.34a5 5 0 0 1 1.76-1.8l.64-.36c.69-.4 1-.24.76.35a5 5 0 0 1-1.76 1.79"/>
    <path class="l" d="M108.62 157.34l-11.08 6.35c-.69.4-1 .24-.76-.35a4.92 4.92 0 0 1 1.76-1.79l11.08-6.34c.7-.4 1-.25.77.34a5 5 0 0 1-1.77 1.79"/>
    <path class="m" d="M90.17 183.17l-7.93 4.54c-.69.39-1 .24-.76-.35a4.93 4.93 0 0 1 1.76-1.79l7.92-4.57c.7-.4 1-.24.77.35a4.93 4.93 0 0 1-1.76 1.79"/>
    <path class="a" d="M100.37 177.33l-6 3.42c-.7.4-1 .24-.77-.35a5 5 0 0 1 1.76-1.79l6-3.42c.7-.4 1-.24.77.34a5 5 0 0 1-1.77 1.8"/>
    <path class="g" d="M137.12 175.72c7.48-4.32 13.62-14.95 13.62-23.59a12.94 12.94 0 0 0-1.09-5.51c4.89-.43 8.35 3.18 8.35 9.67 0 8.65-6.14 19.27-13.62 23.59-5.6 3.24-10.45 2.06-12.53-2.35a13.2 13.2 0 0 0 5.27-1.81"/>
    <path class="f" d="M137.12 175.72c7.48-4.32 13.62-14.95 13.62-23.59a12.94 12.94 0 0 0-1.09-5.51c4.89-.43 8.35 3.18 8.35 9.67 0 8.65-6.14 19.27-13.62 23.59-5.6 3.24-10.45 2.06-12.53-2.35a13.2 13.2 0 0 0 5.27-1.81z"/>
    <path class="p" d="M137.05 168.39c0 2.36.81 4 2.14 4.78s3.15.63 5.19-.55a16.06 16.06 0 0 0 7.33-12.7c0-2.36-.81-4-2.14-4.78s-3.15-.63-5.19.55a16.06 16.06 0 0 0-7.33 12.7"/>
    <path class="f" d="M137.05 168.39c0 2.36.81 4 2.14 4.78s3.15.63 5.19-.55a16.06 16.06 0 0 0 7.33-12.7c0-2.36-.81-4-2.14-4.78s-3.15-.63-5.19.55a16.06 16.06 0 0 0-7.33 12.7z"/>
    <path class="g" d="M137.12 151.52c2-1.17 3.87-1.3 5.19-.54l7.26 4.16c-1.32-.75-3.15-.63-5.19.55a16.07 16.07 0 0 0-7.34 12.7c0 2.36.82 4 2.15 4.78l-7.26-4.17c-1.33-.76-2.14-2.41-2.14-4.77a16.08 16.08 0 0 1 7.33-12.71"/>
    <path class="f" d="M137.12 151.52c2-1.17 3.87-1.3 5.19-.54l7.26 4.16c-1.32-.75-3.15-.63-5.19.55a16.07 16.07 0 0 0-7.34 12.7c0 2.36.82 4 2.15 4.78l-7.26-4.17c-1.33-.76-2.14-2.41-2.14-4.77a16.08 16.08 0 0 1 7.33-12.71z"/>
    <path class="g" d="M160.94 129.26l-7.25-4.16-6 7.31 8.03 4.63 5.22-2.88v-4.9z"/>
    <path class="f" d="M160.94 129.26l-7.25-4.16-6 7.31 8.03 4.63 5.22-2.88v-4.9z"/>
    <path class="q" d="M157.75 141.5l6.61-1.62 7.26 4.16-5.43 4.31h-4.34l-4.1-6.85z"/>
    <path class="f" d="M157.75 141.5l6.61-1.62 7.26 4.16-5.43 4.31h-4.34l-4.1-6.85z"/>
    <path class="g" d="M140.92 126.35l7.26 4.16-7.6 4.39-7.26-4.17 7.6-4.38z"/>
    <path class="f" d="M140.92 126.35l7.26 4.16-7.6 4.39-7.26-4.17 7.6-4.38z"/>
    <path class="q" d="M133.32 130.73l-1.9 8.74 7.26 4.16 1.9-8.73-7.26-4.17z"/>
    <path class="f" d="M133.32 130.73l-1.9 8.74 7.26 4.16 1.9-8.73-7.26-4.17z"/>
    <path class="g" d="M133.81 148.79l-7.26-4.16-5.99-.4 7.25 4.16 6 .4z"/>
    <path class="f" d="M133.81 148.79l-7.26-4.16-5.99-.4 7.25 4.16 6 .4z"/>
    <path class="g" d="M131.42 139.47l7.26 4.16a45.25 45.25 0 0 0-4.88 5.16l-7.25-4.17a44.22 44.22 0 0 1 4.87-5.15"/>
    <path class="f" d="M131.42 139.47l7.26 4.16a45.25 45.25 0 0 0-4.88 5.16l-7.25-4.17a44.22 44.22 0 0 1 4.87-5.15z"/>
    <path class="g" d="M120.56 144.23l7.25 4.16-5.37 9.3-7.25-4.16 5.37-9.3z"/>
    <path class="f" d="M120.56 144.23l7.25 4.16-5.37 9.3-7.25-4.16 5.37-9.3z"/>
    <path class="q" d="M115.19 153.53l3.33 4.99 7.26 4.16-3.34-4.99-7.25-4.16z"/>
    <path class="f" d="M115.19 153.53l3.33 4.99 7.26 4.16-3.34-4.99-7.25-4.16z"/>
    <path class="g" d="M116.5 165.32l7.25 4.17-6.61 6.01-7.26-4.17 6.62-6.01z"/>
    <path class="f" d="M116.5 165.32l7.25 4.17-6.61 6.01-7.26-4.17 6.62-6.01z"/>
    <path class="q" d="M109.88 171.33l7.26 4.17v8.77l-7.26-4.17v-8.77z"/>
    <path class="f" d="M109.88 171.33l7.26 4.17v8.77l-7.26-4.17v-8.77z"/>
    <path class="q" d="M125.78 162.68a45.93 45.93 0 0 0-2 6.81l-7.25-4.17a44.59 44.59 0 0 1 2-6.8z"/>
    <path class="f" d="M125.78 162.68a45.93 45.93 0 0 0-2 6.81l-7.25-4.17a44.59 44.59 0 0 1 2-6.8z"/>
    <path class="q" d="M123.75 182.64a15 15 0 0 0 2 4.46l-6-3.47z"/>
    <path class="f" d="M123.75 182.64a15 15 0 0 0 2 4.46l-6-3.47z"/>
    <path class="p" d="M130.76 172c0-8.64 6.13-19.27 13.62-23.59s13.62-.78 13.62 7.86-6.14 19.27-13.62 23.59-13.62.78-13.62-7.86zm-7 10.62a15 15 0 0 0 2 4.46l-3.32 8.92 5.37 3.1 6-7.32a14.66 14.66 0 0 0 4.87-.47l1.9 6.54 7.6-4.38 1.89-8.74a43.6 43.6 0 0 0 4.88-5.16l6 .4 5.37-9.3-3.34-5a43.65 43.65 0 0 0 2-6.81l6.62-6V144l-6.6 1.67a14.51 14.51 0 0 0-2-4.46l3.34-8.85-5.37-3.1-6 7.32a14.72 14.72 0 0 0-4.88.47l-1.89-6.54-7.6 4.39-1.9 8.73a44.32 44.32 0 0 0-4.87 5.16l-6-.4-5.37 9.3 3.34 5a45.93 45.93 0 0 0-2 6.81l-6.61 6v8.77z"/>
    <path class="f" d="M130.76 172c0-8.64 6.13-19.27 13.62-23.59s13.62-.78 13.62 7.86-6.14 19.27-13.62 23.59-13.62.8-13.62-7.86zm-7 10.62a15 15 0 0 0 2 4.46l-3.32 8.92 5.37 3.1 6-7.32a14.66 14.66 0 0 0 4.87-.47l1.9 6.54 7.6-4.38 1.89-8.74a43.6 43.6 0 0 0 4.88-5.16l6 .4 5.37-9.3-3.34-5a43.65 43.65 0 0 0 2-6.81l6.62-6V144l-6.6 1.67a14.51 14.51 0 0 0-2-4.46l3.34-8.85-5.37-3.1-6 7.32a14.72 14.72 0 0 0-4.88.47l-1.89-6.54-7.6 4.39-1.9 8.73a44.32 44.32 0 0 0-4.87 5.16l-6-.4-5.37 9.3 3.34 5a45.93 45.93 0 0 0-2 6.81l-6.61 6v8.77z"/>
    <path class="q" d="M118.11 184.03l1.62-.4 6.05 3.47-3.34 8.85-7.25-4.17 2.92-7.75z"/>
    <path class="f" d="M118.11 184.03l1.62-.4 6.05 3.47-3.34 8.85-7.25-4.17 2.92-7.75z"/>
    <path class="q" d="M133 192.67l.76-.94a14.7 14.7 0 0 0 4.88-.47l1.9 6.54-8-4.58z"/>
    <path class="f" d="M133 192.67l.76-.94a14.7 14.7 0 0 0 4.88-.47l1.9 6.54-8-4.58z"/>
    <path class="g" d="M154.91 136.58a14.65 14.65 0 0 0-4.83.47l-1.14-3.92z"/>
    <path class="f" d="M154.91 136.58a14.65 14.65 0 0 0-4.83.47l-1.14-3.92z"/>
    <path class="g" d="M83.69 147.44l25.09 97.77"/>
    <path class="r" d="M108.78 247.19a2 2 0 0 1-1.92-1.49l-25.09-97.77a2 2 0 1 1 3.84-1l25.09 97.78a2 2 0 0 1-1.42 2.41 2.2 2.2 0 0 1-.5.06"/>
    <path class="g" d="M166.86 198.72c.19-.11.38-.24.58-.37a11.7 11.7 0 0 0 1.16-.9c.23-.2.46-.41.68-.63l.48-.51q.33-.36.63-.75a14.18 14.18 0 0 0 1-1.34c.3-.46.58-.94.83-1.42s.48-1 .68-1.51c.12-.31.23-.61.33-.92s.14-.45.2-.67.15-.61.21-.91a10.66 10.66 0 0 0 .2-1.46v-.68-.35l.27-.14a6.75 6.75 0 0 1 1.17-.44 4.14 4.14 0 0 1 .68-.15h.48a4.33 4.33 0 0 1 .63 0 3.37 3.37 0 0 1 1 .23 3.18 3.18 0 0 1 .82.47 3.58 3.58 0 0 1 .68.72 3.71 3.71 0 0 1 .33.54 3.49 3.49 0 0 1 .2.44 4.38 4.38 0 0 1 .22.67 8.4 8.4 0 0 1 .2 1.22v1.34c0 .48-.11 1-.2 1.46-.06.3-.13.6-.22.91s-.12.44-.2.67-.21.61-.33.92c-.2.51-.42 1-.67 1.5s-.53 1-.83 1.43-.62.91-1 1.34a9.09 9.09 0 0 1-.63.74q-.24.27-.48.51c-.23.23-.45.44-.68.64a12.17 12.17 0 0 1-1.17.9c-.19.13-.38.26-.58.37s-.39.21-.58.3a6.67 6.67 0 0 1-1.16.44 4.38 4.38 0 0 1-.68.15l-.48.05a4.33 4.33 0 0 1-.63 0 3.44 3.44 0 0 1-1-.23 3.35 3.35 0 0 1-.82-.47 3.6 3.6 0 0 1-.68-.72 4.86 4.86 0 0 1-.33-.54c-.07-.14-.14-.29-.2-.44a6.37 6.37 0 0 1-.21-.66 6.58 6.58 0 0 1-.2-1.23v-.31l.31-.16"/>
    <path class="f" d="M166.86 198.72c.19-.11.38-.24.58-.37a11.7 11.7 0 0 0 1.16-.9c.23-.2.46-.41.68-.63l.48-.51q.33-.36.63-.75a14.18 14.18 0 0 0 1-1.34c.3-.46.58-.94.83-1.42s.48-1 .68-1.51c.12-.31.23-.61.33-.92s.14-.45.2-.67.15-.61.21-.91a10.66 10.66 0 0 0 .2-1.46v-.68-.35l.27-.14a6.75 6.75 0 0 1 1.17-.44 4.14 4.14 0 0 1 .68-.15h.48a4.33 4.33 0 0 1 .63 0 3.37 3.37 0 0 1 1 .23 3.18 3.18 0 0 1 .82.47 3.58 3.58 0 0 1 .68.72 3.71 3.71 0 0 1 .33.54 3.49 3.49 0 0 1 .2.44 4.38 4.38 0 0 1 .22.67 8.4 8.4 0 0 1 .2 1.22v1.34c0 .48-.11 1-.2 1.46-.06.3-.13.6-.22.91s-.12.44-.2.67-.21.61-.33.92c-.2.51-.42 1-.67 1.5s-.53 1-.83 1.43-.62.91-1 1.34a9.09 9.09 0 0 1-.63.74q-.24.27-.48.51c-.23.23-.45.44-.68.64a12.17 12.17 0 0 1-1.17.9c-.19.13-.38.26-.58.37s-.39.21-.58.3a6.67 6.67 0 0 1-1.16.44 4.38 4.38 0 0 1-.68.15l-.48.05a4.33 4.33 0 0 1-.63 0 3.44 3.44 0 0 1-1-.23 3.35 3.35 0 0 1-.82-.47 3.6 3.6 0 0 1-.68-.72 4.86 4.86 0 0 1-.33-.54c-.07-.14-.14-.29-.2-.44a6.37 6.37 0 0 1-.21-.66 6.58 6.58 0 0 1-.2-1.23v-.31z"/>
    <path class="q" d="M170.6 207.78V211a1.62 1.62 0 0 0 .68 1.5l-4.05-2.34 1.23-2.12a7 7 0 0 0 2.14-.21"/>
    <path class="f" d="M170.6 207.78V211a1.62 1.62 0 0 0 .68 1.5l-4.05-2.34 1.23-2.12a7 7 0 0 0 2.14-.26z"/>
    <path class="g" d="M171.9 177.19l6.65 3.84a7 7 0 0 0-2.14.21l-6.65-3.84a7.33 7.33 0 0 1 2.14-.21"/>
    <path class="f" d="M171.9 177.19l6.65 3.84a7 7 0 0 0-2.14.21l-6.65-3.84a7.33 7.33 0 0 1 2.14-.21z"/>
    <path class="g" d="M178 172.41l5.82 3.36c-.9-.52-2.38.33-3.28 1.9l-1.54 2.67-.4.69-2.14-1.24v-.92l-.4.69-4.11-2.37 1.94-3.36c.91-1.57 2.38-2.42 3.29-1.9l.82.48"/>
    <path class="f" d="M178 172.41l5.82 3.36c-.9-.52-2.38.33-3.28 1.9l-1.54 2.67-.4.69-2.14-1.24v-.92l-.4.69-4.11-2.37 1.94-3.36c.91-1.57 2.38-2.42 3.29-1.9l.82.48"/>
    <path class="p" d="M180.45 189.83V191.17c0 .48-.11 1-.2 1.46-.06.3-.13.6-.22.91s-.12.45-.2.67-.21.61-.33.92a14.38 14.38 0 0 1-.68 1.5 15.55 15.55 0 0 1-.82 1.43c-.3.46-.62.91-1 1.34-.2.26-.42.5-.63.74s-.32.35-.48.51-.45.44-.68.64a12.17 12.17 0 0 1-1.17.9c-.19.13-.38.26-.58.37a5.34 5.34 0 0 1-.58.3 6.67 6.67 0 0 1-1.16.44 4.38 4.38 0 0 1-.68.15l-.48.05a4.33 4.33 0 0 1-.63 0 3.44 3.44 0 0 1-1-.23 3.06 3.06 0 0 1-.82-.47 3.6 3.6 0 0 1-.68-.72 4.86 4.86 0 0 1-.33-.54c-.07-.14-.14-.29-.2-.44a6.37 6.37 0 0 1-.21-.66 6.58 6.58 0 0 1-.2-1.23v-.65-.69a10.66 10.66 0 0 1 .2-1.46c.06-.3.13-.6.21-.91s.13-.44.2-.67.21-.61.33-.92c.2-.51.43-1 .68-1.5s.53-1 .82-1.43.63-.91 1-1.34c.2-.26.41-.5.63-.74s.32-.35.48-.51.45-.44.68-.64a12.05 12.05 0 0 1 1.16-.9c.19-.13.39-.26.58-.37l.58-.3a6.75 6.75 0 0 1 1.17-.44 4.14 4.14 0 0 1 .68-.15h.48a4.38 4.38 0 0 1 .63 0 3.37 3.37 0 0 1 1 .23 3.18 3.18 0 0 1 .82.47 3.34 3.34 0 0 1 .68.72 3.71 3.71 0 0 1 .33.54 3.49 3.49 0 0 1 .2.44 4.64 4.64 0 0 1 .22.66 8.78 8.78 0 0 1 .2 1.23m8.16-3.37v-1.34a1.41 1.41 0 0 0-2.32-1.34l-2.75 1.58a7 7 0 0 0-.88-2l1.94-3.41c.9-1.57.9-3.27 0-3.79l-.83-.48c-.9-.52-2.38.33-3.28 1.9l-1.94 3.37a7.33 7.33 0 0 0-2.14.21v-3.17a1.62 1.62 0 0 0-.68-1.5 1.65 1.65 0 0 0-1.65.16l-1.16.67a5.15 5.15 0 0 0-2.32 4v3.17a21.81 21.81 0 0 0-2.14 2.25l-1.94-1.12c-.91-.52-2.38.33-3.29 1.9l-.82 1.43c-.91 1.57-.91 3.27 0 3.79l1.94 1.12a22.46 22.46 0 0 0-.89 3l-2.74 1.59a5.13 5.13 0 0 0-2.32 4v1.34a1.41 1.41 0 0 0 2.32 1.34l2.74-1.58a7.35 7.35 0 0 0 .89 2l-1.94 3.4c-.91 1.57-.91 3.27 0 3.79l.82.48a1.67 1.67 0 0 0 1.65-.16 4.77 4.77 0 0 0 1.64-1.74l1.94-3.36a7 7 0 0 0 2.14-.21v3.2a1.42 1.42 0 0 0 2.32 1.34l1.16-.67a5.16 5.16 0 0 0 2.33-4v-3.16a23 23 0 0 0 2.14-2.26l1.94 1.12a1.63 1.63 0 0 0 1.64-.17 4.66 4.66 0 0 0 1.64-1.73l.83-1.42c.9-1.57.9-3.28 0-3.8l-1.94-1.12a21 21 0 0 0 .88-3l2.75-1.59a5.12 5.12 0 0 0 2.32-4"/>
    <path class="f" d="M180.45 189.83V191.17c0 .48-.11 1-.2 1.46-.06.3-.13.6-.22.91s-.12.45-.2.67-.21.61-.33.92a14.38 14.38 0 0 1-.68 1.5 15.55 15.55 0 0 1-.82 1.43c-.3.46-.62.91-1 1.34-.2.26-.42.5-.63.74s-.32.35-.48.51-.45.44-.68.64a12.17 12.17 0 0 1-1.17.9c-.19.13-.38.26-.58.37a5.34 5.34 0 0 1-.58.3 6.67 6.67 0 0 1-1.16.44 4.38 4.38 0 0 1-.68.15l-.48.05a4.33 4.33 0 0 1-.63 0 3.44 3.44 0 0 1-1-.23 3.06 3.06 0 0 1-.82-.47 3.6 3.6 0 0 1-.68-.72 4.86 4.86 0 0 1-.33-.54c-.07-.14-.14-.29-.2-.44a6.37 6.37 0 0 1-.21-.66 6.58 6.58 0 0 1-.2-1.23v-.65-.69a10.66 10.66 0 0 1 .2-1.46c.06-.3.13-.6.21-.91s.13-.44.2-.67.21-.61.33-.92c.2-.51.43-1 .68-1.5s.53-1 .82-1.43.63-.91 1-1.34c.2-.26.41-.5.63-.74s.32-.35.48-.51.45-.44.68-.64a12.05 12.05 0 0 1 1.16-.9c.19-.13.39-.26.58-.37l.58-.3a6.75 6.75 0 0 1 1.17-.44 4.14 4.14 0 0 1 .68-.15h.48a4.38 4.38 0 0 1 .63 0 3.37 3.37 0 0 1 1 .23 3.18 3.18 0 0 1 .82.47 3.34 3.34 0 0 1 .68.72 3.71 3.71 0 0 1 .33.54 3.49 3.49 0 0 1 .2.44 4.64 4.64 0 0 1 .22.66 8.78 8.78 0 0 1 .2 1.18zm8.16-3.37v-1.34a1.41 1.41 0 0 0-2.32-1.34l-2.75 1.58a7 7 0 0 0-.88-2l1.94-3.36c.9-1.57.9-3.27 0-3.79l-.83-.48c-.9-.52-2.38.33-3.28 1.9l-1.94 3.37a7.33 7.33 0 0 0-2.14.21v-3.17a1.62 1.62 0 0 0-.68-1.5 1.65 1.65 0 0 0-1.65.16l-1.16.67a5.15 5.15 0 0 0-2.32 4v3.17a21.81 21.81 0 0 0-2.14 2.25l-1.94-1.12c-.91-.52-2.38.33-3.29 1.9l-.82 1.43c-.91 1.57-.91 3.27 0 3.79l1.94 1.12a22.46 22.46 0 0 0-.89 3l-2.74 1.59a5.13 5.13 0 0 0-2.32 4v1.34a1.41 1.41 0 0 0 2.32 1.34l2.74-1.58a7.35 7.35 0 0 0 .89 2l-1.94 3.4c-.91 1.57-.91 3.27 0 3.79l.82.48a1.67 1.67 0 0 0 1.65-.16 4.77 4.77 0 0 0 1.64-1.74l1.94-3.36a7 7 0 0 0 2.14-.21v3.2a1.42 1.42 0 0 0 2.32 1.34l1.16-.67a5.16 5.16 0 0 0 2.33-4v-3.16a23 23 0 0 0 2.14-2.26l1.94 1.12a1.63 1.63 0 0 0 1.64-.17 4.66 4.66 0 0 0 1.64-1.73l.83-1.42c.9-1.57.9-3.28 0-3.8l-1.94-1.12a21 21 0 0 0 .88-3l2.75-1.59a5.12 5.12 0 0 0 2.32-4.08z"/>
    <path class="g" d="M166.27 173.56l1.17-.67a1.63 1.63 0 0 1 1.64-.16l6.65 3.84a1.65 1.65 0 0 0-1.65.16l-1.16.67a5.15 5.15 0 0 0-2.32 4v3.17l-6.6-3.81v-3.17a5.17 5.17 0 0 1 2.32-4"/>
    <path class="f" d="M166.27 173.56l1.17-.67a1.63 1.63 0 0 1 1.64-.16l6.65 3.84a1.65 1.65 0 0 0-1.65.16l-1.16.67a5.15 5.15 0 0 0-2.32 4v3.17l-6.6-3.81v-3.17a5.17 5.17 0 0 1 2.27-4.03z"/>
    <path class="g" d="M164 180.76l6.65 3.84a21.81 21.81 0 0 0-2.14 2.25l-6.7-3.85a21 21 0 0 1 2.14-2.26"/>
    <path class="f" d="M164 180.76l6.65 3.84a21.81 21.81 0 0 0-2.14 2.25l-6.7-3.85a21 21 0 0 1 2.19-2.24z"/>
    <path class="g" d="M155.76 185.22l.82-1.43c.91-1.57 2.39-2.42 3.29-1.89l6.5 3.75c-.92-.36-2.27.47-3.13 1.95l-.82 1.42c-.91 1.57-.91 3.28 0 3.8l-6.66-3.82c-.9-.52-.9-2.22 0-3.79"/>
    <path class="f" d="M155.76 185.22l.82-1.43c.91-1.57 2.39-2.42 3.29-1.89l6.5 3.75c-.92-.36-2.27.47-3.13 1.95l-.82 1.42c-.91 1.57-.91 3.28 0 3.8l-6.66-3.82c-.9-.51-.9-2.21 0-3.78z"/>
    <path class="q" d="M155.76 205.14l1.94-3.35.73.42a2.19 2.19 0 0 0 0 .36v1.34a1.41 1.41 0 0 0 2.32 1.34l1.49-.85 2.14 1.23-1.97 3.37c-.91 1.57-.91 3.27 0 3.79l-5.83-3.36-.82-.47c-.9-.53-.9-2.23 0-3.8"/>
    <path class="f" d="M155.76 205.14l1.94-3.35.73.42a2.19 2.19 0 0 0 0 .36v1.34a1.41 1.41 0 0 0 2.32 1.34l1.49-.85 2.14 1.23-1.97 3.37c-.91 1.57-.91 3.27 0 3.79l-5.83-3.36-.82-.47c-.9-.55-.9-2.25 0-3.82z"/>
    <path class="g" d="M151.75 200.06v-1.34a5.13 5.13 0 0 1 2.32-4l2.75-1.59 6.64 3.84-2.74 1.59a5.13 5.13 0 0 0-2.32 4v1.34a1.65 1.65 0 0 0 .68 1.51l-6.65-3.84a1.63 1.63 0 0 1-.68-1.51"/>
    <path class="f" d="M151.75 200.06v-1.34a5.13 5.13 0 0 1 2.32-4l2.75-1.59 6.64 3.84-2.74 1.59a5.13 5.13 0 0 0-2.32 4v1.34a1.65 1.65 0 0 0 .68 1.51l-6.65-3.84a1.63 1.63 0 0 1-.68-1.51z"/>
    <path class="q" d="M156.82 193.11a21 21 0 0 1 .88-3l2.62 1.52 2.09 1.2 1.94 1.12a22.46 22.46 0 0 0-.89 3l-3.57-2.06z"/>
    <path class="f" d="M156.82 193.11a21 21 0 0 1 .88-3l2.62 1.52 2.09 1.2 1.94 1.12a22.46 22.46 0 0 0-.89 3l-3.57-2.06z"/>
    <path class="q" d="M164.35 205.62l-2.14-1.23 1.25-.73a7.35 7.35 0 0 0 .89 2"/>
    <path class="f" d="M164.35 205.62l-2.14-1.23 1.25-.73a7.35 7.35 0 0 0 .89 1.96z"/>
    <path class="q" d="M186.29 183.78l-2.75 1.58a7 7 0 0 0-.88-2l1.22-2.12 4.05 2.33a1.64 1.64 0 0 0-1.64.17"/>
    <path class="f" d="M186.29 183.78l-2.75 1.58a7 7 0 0 0-.88-2l1.22-2.12 4.05 2.33a1.64 1.64 0 0 0-1.64.21z"/>
    <path class="e" d="M108.78 245.44l13 7.48a12.69 12.69 0 0 0 11.45 0l19.54-11.28L178 227.05l25.27-14.59 19.55-11.29a3.49 3.49 0 0 0 0-6.61l-13-7.52-.23.06-100.78 58.17z"/>
    <path class="f" d="M108.78 245.44l13 7.48a12.69 12.69 0 0 0 11.45 0l19.54-11.28L178 227.05l25.27-14.59 19.55-11.29a3.49 3.49 0 0 0 0-6.61l-13-7.52-.23.06-100.78 58.17z"/>
    <path d="M185.36 215.15l-12.25-7.08-28.53 16.47 12.25 7.08a5.46 5.46 0 0 0 4.92 0L185.36 218c1.35-.78 1.35-2.06 0-2.84" fill="#eaf0f6" fill-rule="evenodd"/>
    <path d="M185.36 215.15l-12.25-7.08-28.53 16.47 12.25 7.08a5.46 5.46 0 0 0 4.92 0L185.36 218c1.35-.79 1.35-2.07 0-2.85z" stroke-width="1.17" fill="none" stroke="#33475c"/>
    <path class="e" d="M222.79 201.11l-19.54 11.29L178 227l-25.3 14.58-19.55 11.28a12.67 12.67 0 0 1-11.44 0l-19.55-11.28L76.89 227l-25.27-14.6s0 5.29 4.29 7.77l21 12.11 25.27 14.59 19.55 11.28a12.67 12.67 0 0 0 11.44 0l19.55-11.28L178 232.28l25.28-14.59 19.54-11.29a4 4 0 0 0 2.36-3.31v-5.28a4 4 0 0 1-2.36 3.3"/>
    <path class="f" d="M222.79 201.11l-19.54 11.29L178 227l-25.3 14.58-19.55 11.28a12.67 12.67 0 0 1-11.44 0l-19.55-11.28L76.89 227l-25.27-14.6s0 5.29 4.29 7.77l21 12.11 25.27 14.59 19.55 11.28a12.67 12.67 0 0 0 11.44 0l19.55-11.28L178 232.28l25.28-14.59 19.54-11.29a4 4 0 0 0 2.36-3.31v-5.28a4 4 0 0 1-2.39 3.3z"/>
    <path class="u" d="M117.93 112.58c1.55.54 3.23 1.59 3.19 3.1 0 1.26-1.28 2.21-2.51 2.8s-2.62 1.08-3.41 2.12a3.77 3.77 0 0 0 .06 4.25 6.17 6.17 0 0 0 .79 1L146.87 108V82.25c0-2.18-1.54-3.08-3.43-2l-24.13 13.94a4.28 4.28 0 0 1 1 1.6c.68 2-.43 4.08-1.86 5.67s-3.24 3-4.33 4.75a3.88 3.88 0 0 0-.35 4.05c.83 1.31 2.61 1.77 4.16 2.32"/>
    <path class="r" d="M57.45 133.88v64.32l24.27-52.39a.66.66 0 0 1 .27-.3l1.59-.92c-1.21-3-.82-6.83 1.8-8.69 1.76-1.26 4.59-1.94 4.64-4.11.07-2.73-4.31-3.13-5.54-5.57-1-1.87.34-4.09 1.7-5.7s2.96-3.52 2.59-5.52a3.77 3.77 0 0 0-1.47-2.29l-26.42 15.22a7.62 7.62 0 0 0-3.43 5.95"/>
    <path class="a" d="M117.93 112.58c-1.55-.55-3.33-1-4.16-2.32a3.88 3.88 0 0 1 .35-4.05c1.09-1.8 2.89-3.15 4.33-4.75s2.54-3.71 1.86-5.67a4.28 4.28 0 0 0-1-1.6l-32 18.48a3.85 3.85 0 0 1 1.46 2.33c.37 2.07-1.22 3.92-2.57 5.53s-2.66 3.83-1.7 5.7c1.23 2.44 5.61 2.84 5.54 5.57-.05 2.17-2.88 2.85-4.64 4.11-2.62 1.86-3 5.7-1.8 8.69l32.45-18.73a6.17 6.17 0 0 1-.79-1 3.77 3.77 0 0 1-.06-4.25c.79-1 2.18-1.52 3.41-2.12s2.47-1.54 2.51-2.8c0-1.51-1.64-2.56-3.19-3.1"/>
    <path class="r" d="M204.56 189.23l3.57-2.06-24.06-96.69a2 2 0 0 0-3.85 1z"/>
    <path class="v" d="M308.13 147.14c5.35 3.09 5.35 8.14 0 11.23l-1.71 1c-5.35 3.09-14.11 3.09-19.46 0l-34.22-19.77c-5.35-3.08-5.36-8.17 0-11.29l1.63-1c5.33-3.13 14.07-3.15 19.42-.07zM308.13 189.46c5.35 3.09 5.35 8.15 0 11.24l-1.71 1c-5.35 3.09-14.11 3.09-19.46 0l-34.22-19.75c-5.35-3.09-5.36-8.17 0-11.3l1.63-.95c5.33-3.12 14.07-3.15 19.42-.06z"/>
    <path class="v" d="M248.72 134c0 2.05 1.35 4.09 4 5.64L287 159.36c5.35 3.09 14.11 3.09 19.46 0l1.71-1c2.32-1.33 3.57-3 3.88-4.8l.13.05v42h-.09c-.22 1.85-1.49 3.66-3.92 5.07l-1.71 1c-5.35 3.08-14.11 3.08-19.46 0l-34.22-19.76a7.83 7.83 0 0 1-3.78-4.2 4.73 4.73 0 0 1-.24-1.44z"/>
    <path class="v" d="M300.09 154.9a5.62 5.62 0 0 0 5.61-5.62v-9.67c0-14.55-9.86-31.64-22.46-38.92-6.94-4-14.05-4.48-19.5-1.34s-8.58 9.55-8.58 17.56v12.48a5.62 5.62 0 1 0 11.23 0v-12.48c0-3.89 1.08-6.75 3-7.83s4.9-.6 8.26 1.34c9.14 5.27 16.85 18.64 16.85 29.19v9.67a5.62 5.62 0 0 0 5.59 5.62z"/>
    <path class="r" d="M308.13 147.14c5.35 3.09 5.35 8.14 0 11.23l-1.71 1c-5.35 3.09-14.11 3.09-19.46 0l-34.22-19.77c-5.35-3.08-5.36-8.17 0-11.29l1.63-1c5.33-3.13 14.07-3.15 19.42-.07z"/>
    <path class="w" d="M308.13 147.14c5.35 3.09 5.35 8.14 0 11.23l-1.71 1c-5.35 3.09-14.11 3.09-19.46 0l-34.22-19.77c-5.35-3.08-5.36-8.17 0-11.29l1.63-1c5.33-3.13 14.07-3.15 19.42-.07z"/>
    <path class="a" d="M308.13 189.46c5.35 3.09 5.35 8.15 0 11.24l-1.71 1c-5.35 3.09-14.11 3.09-19.46 0l-34.22-19.75c-5.35-3.09-5.36-8.17 0-11.3l1.63-.95c5.33-3.12 14.07-3.15 19.42-.06z"/>
    <path d="M308.13 189.46c5.35 3.09 5.35 8.15 0 11.24l-1.71 1c-5.35 3.09-14.11 3.09-19.46 0l-34.22-19.75c-5.35-3.09-5.36-8.17 0-11.3l1.63-.95c5.33-3.12 14.07-3.15 19.42-.06z" stroke-width="1.47" stroke-linecap="round" stroke-linejoin="round" fill="none" stroke="#33475c"/>
    <path d="M248.72 134c0 2.05 1.35 4.09 4 5.64L287 159.36c5.35 3.09 14.11 3.09 19.46 0l1.71-1c2.32-1.33 3.57-3 3.88-4.8l.13.05v42h-.09c-.22 1.85-1.49 3.66-3.92 5.07l-1.71 1c-5.35 3.08-14.11 3.08-19.46 0l-34.22-19.76a7.83 7.83 0 0 1-3.78-4.2 4.73 4.73 0 0 1-.24-1.44z" fill="#f6c364" fill-rule="evenodd"/>
    <path class="w" d="M248.72 134c0 2.05 1.35 4.09 4 5.64L287 159.36c5.35 3.09 14.11 3.09 19.46 0l1.71-1c2.32-1.33 3.57-3 3.88-4.8l.13.05v42h-.09c-.22 1.85-1.49 3.66-3.92 5.07l-1.71 1c-5.35 3.08-14.11 3.08-19.46 0l-34.22-19.76a7.83 7.83 0 0 1-3.78-4.2 4.73 4.73 0 0 1-.24-1.44z"/>
    <path class="u" d="M300.09 154.9a5.62 5.62 0 0 0 5.61-5.62v-9.67c0-14.55-9.86-31.64-22.46-38.92-6.94-4-14.05-4.48-19.5-1.34s-8.58 9.55-8.58 17.56v12.48a5.62 5.62 0 1 0 11.23 0v-12.48c0-3.89 1.08-6.75 3-7.83s4.9-.6 8.26 1.34c9.14 5.27 16.85 18.64 16.85 29.19v9.67a5.62 5.62 0 0 0 5.62 5.62"/>
    <path class="w" d="M300.09 154.9a5.62 5.62 0 0 0 5.61-5.62v-9.67c0-14.55-9.86-31.64-22.46-38.92-6.94-4-14.05-4.48-19.5-1.34s-8.58 9.55-8.58 17.56v12.48a5.62 5.62 0 1 0 11.23 0v-12.48c0-3.89 1.08-6.75 3-7.83s4.9-.6 8.26 1.34c9.14 5.27 16.85 18.64 16.85 29.19v9.67a5.62 5.62 0 0 0 5.59 5.62z"/>
    <path class="z" d="M187.1 33.47l17.39.19a1.79 1.79 0 0 0 .34 0 2.34 2.34 0 0 0 1.39-4.24l-5-5.13a23.79 23.79 0 0 1 17.89-7.79 21.29 21.29 0 0 1 2.27.13h-.1c9.19 1.24 16.83 8.56 20 19.1a4.78 4.78 0 0 0 9.37-1.31 4.5 4.5 0 0 0-.2-1.43C246.18 18.85 235.52 9 222.64 7.2a32.64 32.64 0 0 0-3.44-.2 33.07 33.07 0 0 0-24.58 10.5l-5.51-5.63a2.45 2.45 0 0 0-4.2 1.69l-.19 17.29V31a2.45 2.45 0 0 0 2.41 2.48zM248.12 47.77l-17.41-.19h-.35A2.35 2.35 0 0 0 229 51.8l5 5.11a23.85 23.85 0 0 1-17.91 7.79c-.76 0-1.51 0-2.25-.13h.09c-9.18-1.25-16.83-8.56-20-19.1a4.78 4.78 0 0 0-9.37 1.3 5 5 0 0 0 .21 1.45C189 62.28 199.62 72.27 212.57 74a28.57 28.57 0 0 0 3.74.27 33.71 33.71 0 0 0 24.43-10.53l5.49 5.61a2.43 2.43 0 0 0 1.72.73 2.45 2.45 0 0 0 2.48-2.42l.19-17.36a2.44 2.44 0 0 0-2.43-2.48h-.09z"/>
    <path class="aa" d="M179 27.75l17.39.18a1.79 1.79 0 0 0 .34 0 2.34 2.34 0 0 0 1.39-4.24l-5-5.14A23.79 23.79 0 0 1 211 10.79c.77 0 1.52.05 2.27.13h-.1c9.19 1.25 16.83 8.56 20 19.1a4.78 4.78 0 0 0 9.37-1.3 4.56 4.56 0 0 0-.2-1.44c-4.27-14.18-14.93-24.07-27.8-25.83a33.31 33.31 0 0 0-28 10.3L181 6.17a2.39 2.39 0 0 0-1.72-.73 2.45 2.45 0 0 0-2.48 2.42l-.19 17.29v.11a2.46 2.46 0 0 0 2.39 2.49zM240 42l-17.41-.18a2 2 0 0 0-.35 0 2.34 2.34 0 0 0-1.39 4.24l5 5.11A23.85 23.85 0 0 1 208 59a20.91 20.91 0 0 1-2.25-.13h.09c-9.18-1.24-16.83-8.56-20-19.1a4.79 4.79 0 0 0-9.38 1.31 4.92 4.92 0 0 0 .21 1.44c4.2 14.09 14.86 24.08 27.8 25.83a30.33 30.33 0 0 0 3.74.28A33.75 33.75 0 0 0 232.64 58l5.49 5.6a2.4 2.4 0 0 0 1.72.73 2.45 2.45 0 0 0 2.48-2.41l.19-17.37a2.46 2.46 0 0 0-2.41-2.55H240z"/>
    <g opacity=".73">
        <path class="ac" d="M284.14 87.27a.65.65 0 0 1-.31 0 .7.7 0 0 1-.55-.81l3.16-16.36a.69.69 0 1 1 1.36.27l-3.15 16.35a.69.69 0 0 1-.51.55zM275.35 87.83a.69.69 0 0 1-.74-.28l-4.3-6.27a.69.69 0 0 1 .18-1 .68.68 0 0 1 1 .18l4.3 6.27a.69.69 0 0 1-.18 1 .62.62 0 0 1-.26.1zM268.93 78.47a.7.7 0 0 1-.74-.29l-.62-.9a.7.7 0 0 1 .17-1 .71.71 0 0 1 1 .18l.62.91a.68.68 0 0 1-.18 1 .65.65 0 0 1-.25.1zM292.06 91.07a.67.67 0 0 1-.74-.28.69.69 0 0 1 .18-1l2-1.4a.69.69 0 0 1 .78 1.15l-2 1.4a.62.62 0 0 1-.22.13zM297.17 87.57a.7.7 0 0 1-.74-.28.69.69 0 0 1 .18-1l4.6-3.16a.69.69 0 0 1 .78 1.15l-4.6 3.16a.88.88 0 0 1-.22.13z"/>
    </g>
</svg>
